<?xml version="1.0" encoding="utf-8"?>
<!-- Generator: Adobe Illustrator 23.0.1, SVG Export Plug-In . SVG Version: 6.00 Build 0)  -->
<svg version="1.1" id="Ebene_1" xmlns="http://www.w3.org/2000/svg" xmlns:xlink="http://www.w3.org/1999/xlink" x="0px" y="0px"
	 viewBox="0 0 138.5 217" style="enable-background:new 0 0 138.5 217;" xml:space="preserve">
<title>icons-round-Zeichenfläche 11</title>
<g id="Ebene_4">
	<path d="M51.6,67.5l-13.9,7.1l-7.9,4.1C20.2,83.6,9,82.5,1.4,76.7c0-0.2-0.1-0.5-0.1-0.7c-0.3-1.7-0.6-3.3-0.9-4.9
		c-1.1-18.3,0.5-36.6,4.9-54.3c1.3-5.1,2.3-8,2.3-8l10.9-5.6C31.5-3.6,47.3,0.9,53.5,13l10.4,20.2C70.2,45.4,64.6,60.8,51.6,67.5z"
		/>
	<path d="M124.4,206.7l-10.4,5.4c-23.8-10.5-42.7-22.8-57.6-36l0,0c0-9.7,5.4-18.6,14.1-23l20.9-10.8c12.5-6.5,27.9-1.8,34.1,10.3
		l10.4,20.2C142.1,185.1,136.9,200.3,124.4,206.7z"/>
	<path d="M112.4,212.9l-8,4.1c-18.5-10.9-35.4-24.3-50.4-39.7C27.1,149.6,8.8,114.7,1.4,76.7c0-0.2-0.1-0.5-0.1-0.7
		c-0.3-1.7-0.6-3.3-0.9-4.9c-1.1-18.3,0.5-36.6,4.9-54.3l28.4,18.1c-0.1,13.4,1.3,26.7,4.1,39.8c5.9,28.2,19.2,54.2,38.6,75.5
		c15.5,16.9,29.2,24.5,29.2,24.5l6.5,36.6L112.4,212.9z"/>
</g>
</svg>
