<?xml version="1.0" encoding="utf-8"?>
<!-- Generator: Adobe Illustrator 22.1.0, SVG Export Plug-In . SVG Version: 6.00 Build 0)  -->
<svg version="1.1" id="Ebene_1" xmlns="http://www.w3.org/2000/svg" xmlns:xlink="http://www.w3.org/1999/xlink" x="0px" y="0px"
	 viewBox="0 0 156 224.5" style="enable-background:new 0 0 156 224.5;" xml:space="preserve">
<title>icons-round-Zeichenfläche 10</title>
<g id="Ebene_4">
	<path d="M78,0C34.9,0,0,34.9,0,78c0,24.1,10.9,45.6,28,59.9C41.6,149.2,59,156,78,156s36.4-6.8,50-18.1c17.1-14.3,28-35.8,28-59.9
		C156,34.9,121.1,0,78,0z M79.3,43c21.5,0,39,17.5,39,39s-17.5,39-39,39c-21.5,0-39-17.5-39-39S57.8,43,79.3,43z"/>
	<polygon points="78,224.5 130.8,133 25.2,133 	"/>
</g>
</svg>
