<svg id="Ebene_3" data-name="Ebene 3" xmlns="http://www.w3.org/2000/svg" xmlns:xlink="http://www.w3.org/1999/xlink" viewBox="0 0 425.2 315.97"><defs><style>.cls-1{fill:none;stroke:#61a4d7;stroke-width:2.49px;}.cls-2{fill:#ffe905;}.cls-3{fill:#294294;}.cls-4{fill:#5eb130;}</style><symbol id="Tropisch" data-name="Tropisch" viewBox="0 0 106.72 79.31"><path class="cls-1" d="M37.52,17"/><path class="cls-2" d="M17.71,45.26c-.07,0-.18-.07-.26-.12C17.71,45.12,17.82,45.14,17.71,45.26Z"/><path class="cls-2" d="M14.25,44.32a11.26,11.26,0,0,1,3.2.82C16.64,45.25,14.3,45.45,14.25,44.32Z"/><path class="cls-2" d="M17.76,47.11c-.4-.15-.81-.24-1.2-.43C17.3,46.46,17.12,47,17.76,47.11Z"/><polygon class="cls-2" points="17.39 46.02 17.49 45.61 18.09 46.05 17.39 46.02"/><path class="cls-2" d="M15.47,21.52a1,1,0,0,1,.44.47Z"/><path class="cls-2" d="M12.6,21.46a1.31,1.31,0,0,0-.41.28C12.25,21.6,12.37,21.54,12.6,21.46Z"/><path class="cls-2" d="M17,20.48l-.31.19A.51.51,0,0,1,17,20.48Z"/><path class="cls-2" d="M35.4,31a9.33,9.33,0,0,1-.83.93C34.36,31.17,35,31.15,35.4,31Z"/><path class="cls-2" d="M6.09,34.18l.37,0C6.44,34.37,6.38,34.53,6.09,34.18Z"/><path class="cls-2" d="M8,18.22a.71.71,0,0,1,.27.36l-.17.08Z"/><path class="cls-2" d="M18.19,19.31a.06.06,0,0,1,0,0l.36.12C18.41,19.5,18.29,19.46,18.19,19.31Z"/><path class="cls-2" d="M9.65,38.52a3.24,3.24,0,0,1,.18,1C9.44,39.08,9.42,38.68,9.65,38.52Z"/><path class="cls-2" d="M12.15,21.79h0l0,0Z"/><path class="cls-2" d="M12.08,15.23c-.25.09-.48.2-.75.29A.84.84,0,0,1,12.08,15.23Z"/><path class="cls-2" d="M35.4,31l.26-.33A.4.4,0,0,1,35.4,31Z"/><path class="cls-2" d="M20.75,44.5c.36,0,.47.2.56.44A1.56,1.56,0,0,1,20.75,44.5Z"/><path class="cls-2" d="M21.08,28.7a1.55,1.55,0,0,0,0-.43Z"/><path class="cls-2" d="M19.52,28.84l-.26-.11C19.16,28.79,19.32,28.84,19.52,28.84Z"/><path class="cls-2" d="M11.64,23A10.21,10.21,0,0,1,11,24.38c-.23.46-.52,1-.74,1.51a6.62,6.62,0,0,0-.63,3.37c.1-.26.22-.52.34-.76a8,8,0,0,0,.06,2.13l.56-.2a7.62,7.62,0,0,0,2.61,4c1.11.93,2.11,1.47,2.43,2.1,0-.34,0-.68.07-1l.59.44.72.41a10.64,10.64,0,0,0,1.6.63,8.61,8.61,0,0,1-1.75-.95,10.67,10.67,0,0,0,5.88-.25,9,9,0,0,0,2.41-1.31,7.25,7.25,0,0,0,1.16-1.13c-.17,0-.35.06-.52.09A11.06,11.06,0,0,1,27,31.84c-.25.11-.49.19-.73.27.09-.17.18-.34.26-.51s.17-.4.24-.59a6.06,6.06,0,0,0,.27-1.2,5.92,5.92,0,0,0-.14-2.21,6.11,6.11,0,0,0-1.82-3A7.87,7.87,0,0,0,22.35,23,7.55,7.55,0,0,0,18,22.71c-.9.41-.62.35-.12.23s1.24-.16,1.27,0c-.46.27-1.21.47-1.93.77a16.88,16.88,0,0,0-1.7.86,7.35,7.35,0,0,0,1.74-.51c.5-.11.61-.09,0,.67-.67.23-.36.26-.15.37a.21.21,0,0,1,.14.28,2.89,2.89,0,0,1-.6.72,4.41,4.41,0,0,0-1.42.28c-.26.87,0,1.05.1,1.27a1.21,1.21,0,0,1,.17.53,9.68,9.68,0,0,0,.24,1.26c.14.7.16.88,0,.84a1.86,1.86,0,0,1-.75-.7c-.25-.33-.41-.68-.49-.54s-.14.86.65,2.13a3,3,0,0,0,1.8,1.13,4.18,4.18,0,0,0,1.05.09,4.43,4.43,0,0,0,1.14-.17,5.33,5.33,0,0,0,2-1.06,4.9,4.9,0,0,0,.85-.9,3.47,3.47,0,0,0,.37-.59,3.22,3.22,0,0,0,.29-.86,1.68,1.68,0,0,0-.4-1.06c-.16-.17-.29-.21-.38-.19s-.25.27-.35.43-.21.26-.33.15a3.09,3.09,0,0,0-.82-.75c.46.42.49,1.08.2,1.31a.64.64,0,0,0-.5-.07c-.16,0-.17.12-.13,0a.67.67,0,0,0,0-.67.51.51,0,0,0-.67-.17c.54-.08.59.22.58.35a.78.78,0,0,0,0,.5c.09.15.34.15.55.17a.26.26,0,0,1,.24.22.82.82,0,0,1-.19.67,1.3,1.3,0,0,0,.37-.34,1.64,1.64,0,0,0,.29-.66c0,.22.05.32.17.22a1.83,1.83,0,0,0-.08-1.38,1.78,1.78,0,0,0-.79-.83,1.73,1.73,0,0,1,1.06.95,2.16,2.16,0,0,1,.19,1,2.62,2.62,0,0,1-.19.85,5.77,5.77,0,0,0-.35.81c0,.15.11.3.6.1a2.58,2.58,0,0,0,.69-1,3.1,3.1,0,0,0-1.57-4c.36,0,.57,0,.65-.1s0-.23-.06-.39-.24-.34-.33-.48,0-.22,0-.34a4.3,4.3,0,0,1,2.37,1.69,4.72,4.72,0,0,1,.76,3.65,5.07,5.07,0,0,1-.27.91,4.4,4.4,0,0,1-.33.65,4.87,4.87,0,0,1-.83,1,4.7,4.7,0,0,1-4.12,1.2,5.16,5.16,0,0,1-.92-.26,4.32,4.32,0,0,1-.87-.46,4.84,4.84,0,0,1-1.54-1.7,5.17,5.17,0,0,1-.64-2.66,7.12,7.12,0,0,0,.74,2.07c.39.58.72.8.66.32a5.3,5.3,0,0,1-.37-2.71A7.86,7.86,0,0,1,16,26.43a2.51,2.51,0,0,1,1.89-1.75,4,4,0,0,0-.67,1c0-.27.31-.55-.19-.23a1.29,1.29,0,0,0-.79.82c-.06.27,0,.46.16.52.49-.34,1.08-.93,1.64-1.29s1.12-.64,1.44-.84a1.56,1.56,0,0,1,1.13.4.32.32,0,0,1-.06.39c-.16.24-.5.44-.34.59.44-.39,1.26,0,1.64,1A3.21,3.21,0,0,1,22,28.56a5.43,5.43,0,0,1-.16.69,2.43,2.43,0,0,0-.1.46,3,3,0,0,0-.15-.42,1.89,1.89,0,0,0-.17-.49,2.62,2.62,0,0,1-.61.51,1,1,0,0,0-.27.28,4.05,4.05,0,0,1-.29.59,3.27,3.27,0,0,0,0-.54c-.21.1-.33-.36-.26-.55s.28,0-.52.54l.28-.22c0-.1.1-.23.11-.32s0-.14-.32-.25a3,3,0,0,0,.57-.06c-.36-.07-.38-.2-.29-.22s.19.14.18.25c.2.05.95.67,1.3.5.25.57-.18.63-.52.42s-.72-.54-.88-.46c-.06.56.45.38.75.58a1,1,0,0,0-.62.42,3.87,3.87,0,0,1-.74.71c-.58.4-1.4.37-1.36-.66a2.42,2.42,0,0,0,.64-.41c-.22-.49-.35-.58-.4-.4.13,0,.08.17.06.35-.79.2-1.08-.54-.9-1.07a1.68,1.68,0,0,1,.35-.64c.12-.15.19-.21.1-.32a7.27,7.27,0,0,0-.77.1c-.18-.21.3-.28.72-.24s.74.21.57-.22c-.14,0-.28-.09-.42-.12-.08-.33.5-.1.57,0-.64-.5-.36-.82.06-1.13a2.37,2.37,0,0,0,1.17-1.69,8.54,8.54,0,0,0,1.28,1c.42.27.74.41,1,.28.47-.33.46-.62.34-.94s-.33-.64-.06-1c.66.22.6,1.12,1.49,1.33-.25.38-.83.52-1.19.81a.7.7,0,0,0-.15,1.09l.4-.31c-.14,0-.37.05-.45-.14-.08-.63.48-.42.69-.56a4.22,4.22,0,0,1,.87,1.14c-.34.33-.59.33-.76.27s-.31-.17-.42-.1a7.85,7.85,0,0,1,1.49.65c.49.34.8.95.46,1.4l.36-.09c-.41.6-.07.79.23,1.08s.47.55-.49.76c0,.34.21.42.42.52s.39.22.1.72c-.18.27-.36-.1-.43-.21-.53.41-.45.66-.43.87s0,.39-.78.45c.29.21.58.4.88.59a5.62,5.62,0,0,1-2.7.06c-.83-.12-1.48-.31-2,0,.21.75.94.52,1.43,1a7.86,7.86,0,0,0-3-.24,3.4,3.4,0,0,1-2.58-.68c.33-.22.28-.66.31-1a.83.83,0,0,1,.58-.86c-.12,1,.43.49.78.66-.15-1.15-.64-1-1.4-1a2.13,2.13,0,0,1-.92-.1c-.2-.13-.27-.35,0-.77-.19.19-.39.37-.59.55-.09-.22-.06-.94.32-.95a3.94,3.94,0,0,1-.61-.19,2.85,2.85,0,0,1-.59-.26,3.68,3.68,0,0,0-.11,1.44c.1.46.32.82.71.56-.05.45-.25.49-.48.52s-.47,0-.58.56c-.07-.88-.27-.84-.58-.78s-.74.23-1-.34c.6-.16.68-.66.71-1.09s.05-.86.29-1c-.37-.14-.23-1,.06-1.34a1.13,1.13,0,0,0-.22-.39A4.5,4.5,0,0,1,12,28a1.29,1.29,0,0,1-.17-1.27,6.88,6.88,0,0,1-.64.5,1.52,1.52,0,0,1-.88.32c.37-.51.39-1-.42-1.17-.83.9-.31,1.13.24,1.19s1.13.09.8.89a1.79,1.79,0,0,0-.79,2.11c-.67-.17-.8.1-1.48.19a2.77,2.77,0,0,0,.27-2.54,2.71,2.71,0,0,1,.26-2.49,2.19,2.19,0,0,1,1.25-.21,1.26,1.26,0,0,0,1.13-.59l.12.54.19.51c-.3-1.07.64-.07,1.05-.63l-.7,0c0-.48.29-.65.81-.66-.35,0-.72-.05-1.1-.06,0-.31.17-.91.7-.59a1.86,1.86,0,0,0-.46-.41c.18,0,.35,0,.52-.34-.21.11-.24.27-.49.11.47-.53.35-.73.12-.93s-.49-.34-.14-.69c-.27,0-.33-.45-.15-.8a2.08,2.08,0,0,0,1.83.45,2.8,2.8,0,0,1,1.65.09v0a8.83,8.83,0,0,1,1.26,0c-.25,0-.26-.5,0-.81l-.05,0c.25-.37-1.19-1.35.13-1.43a6.57,6.57,0,0,1,.76.21c-.12,0-.1-.28-.09-.41l.76.2c.28-.82.83-.78,1.37-.54a3.93,3.93,0,0,0,.8.3.87.87,0,0,0,.81-.13c-.32.15-.83.07-.66-.42.22-.2.58-.05.77.17l-.07-.17a11.84,11.84,0,0,1,2.13,1.09c-.09-.54-1.33-.73-.73-1.26.4-.67,1,.12,1.38.28-.14.4-.88.62-.22,1,.11-.19.89-.48.63-.83.34.26.73.6,1.1.91a3.26,3.26,0,0,1,.84,1.22c.27-.1,0-.37-.05-.47l-.1.09c-.33-.37.33-1-.68-.94.18-.67.54-.65.95-.42a9.71,9.71,0,0,0,1.26.73,9.72,9.72,0,0,0-.87-1.41,3.81,3.81,0,0,1,3.84,1.38A39,39,0,0,1,33,23.15c-.77-.23-.82-.92-1.55-.13a16,16,0,0,0,1.06,2.19v-.12c.38.13.47.54.57.88s.18.65.72.67c.41-.51-.86-.63.17-1.17a13.45,13.45,0,0,1,.58,1.61c.5-.76-.56-1.64-.76-2.26-.28-.38.33.92-.48,1.06A2.9,2.9,0,0,1,33,24.22c.05-.5.29-1,.42-1.72.15-.47.43-.46.73-.29a3.12,3.12,0,0,1,.63.67,5.88,5.88,0,0,0,.84,4.62,10.9,10.9,0,0,1,1.09.73c-.64,1-2.31.87-2,2.16.22-.13.41-.28.62-.43.29.29.37.5.35.66a7.47,7.47,0,0,0,.72-1A11.73,11.73,0,0,0,37,28.51c.79.34.65,1.12.33,1.86s-1,1.46-1.25,2.06c.18,0,.3-.48.67-.59a3.89,3.89,0,0,1-1.17,2.74l-.52.51c-.17.15-.33.36-.47.39a7.57,7.57,0,0,0-.93.75c.15.85,1-.76,1.58,0-.69.48-.6,1.67-1.41,1.33,1.17.46-1.11,1.51.74,1a8.15,8.15,0,0,1-3.46,3.13A15.57,15.57,0,0,1,26.69,43a1,1,0,0,1,.37.81,4.86,4.86,0,0,1,.79-.27,6.22,6.22,0,0,1,.87-.25,3.49,3.49,0,0,1,1.68.05c-.28.93-1.86.13-1.84.54.45.09,1.07-.26,1.38.24-.51,1-1.41.51-2.06.63l.2-.41c-2.17,0-1.75-1.43-3.5-.55-.49.9.15.57.42,1.42-.53-.14-1.92,1.07-2.58.23l1.21-.3a8.08,8.08,0,0,1-2.32-.2c.08.18.15.38.34.44-.71-.24-1.58-.11-1.93-.68l-.18,1c.41-.45,1.59-.61,1.86-.09,0,.84-1.37.42-1.91.51a6.16,6.16,0,0,1,2.53.73,2.47,2.47,0,0,0,2.26-.17l-.43-.22a3.06,3.06,0,0,1,1.95-.55,4.53,4.53,0,0,0,2-.22c-.24.31-.18.66,0,.75.57-.45,1.16-.79,1.72-1.2s1.18-.71,1.74-1.13A12.82,12.82,0,0,0,33,42.8a9.9,9.9,0,0,0,1.53-1.63c.45,0,.88,0,1.33,0l-.49-.53c.76-1.33,1,.42,1.58-.4-.24.3-.29.17-.48.12,1.79-.92.09-1.21.87-1.87-.9,0-1.36,1.36-1.9.39A4.52,4.52,0,0,0,36.58,38l.53-.56a8.43,8.43,0,0,0,.54-.69c.53-.82,1.14-1.47,2-1.37.21-1.83.54-3.79.62-5.79a14.16,14.16,0,0,0-.7-5.43c-.45-.28-.12.33-.4.28a1.72,1.72,0,0,0-.17-1.2,6.22,6.22,0,0,0-.82-1.09c-.58-.66-1.19-1.07-.82-1.36a2.08,2.08,0,0,0-1.48-.07,5,5,0,0,0-1.19-2.37L35,19l-.14,0-.47-.92h.07a17,17,0,0,0-2.85-2.39,24.14,24.14,0,0,1-2.88-2.26c.94,1-.68.89-.27,1.43C28.1,13.1,25.25,12.2,23,12.24c0,.3-.2.52,0,.78-.4-.24-.82-.42-1.24-.63l.16.36a21.38,21.38,0,0,1-3.46-.22,3.87,3.87,0,0,0-2.86.54c1-.15,1.05.16,1.26.6-1.56.41-3,.92-4.84,1.56a.38.38,0,0,1,.3.15c-.35.38-1.05.42-1.59.59l.37.62c-1,.34-1.69,1.44-2.89,2,.16.44-.47.84-1.12,1.45a4.47,4.47,0,0,0-1.58,2.1c-.38.45,1.23-.79.58.64-.75-.18-1,.33-1.15.85s-.33,1-1.16.93c.12.57.23,1.12.39,1.65l-.84.31a1.38,1.38,0,0,1,.35,1.83,2.56,2.56,0,0,0-.07,2.4c.14-.16.13-.38.28-.31,0,.67.42,2.19-.38,1.18a13,13,0,0,0,1,2.49c.44.77.84,1.1.76.17-.34.36-.78-1.17-.84-1.86.35-.1.6.25.91.59s.66.69,1.08.64a2.6,2.6,0,0,0-.06.49L7,34.06a5.15,5.15,0,0,0,1.33,2.4,6.35,6.35,0,0,1,1.37,2.06c.19-.14.56-.1,1.07.28l-.44.78a19.53,19.53,0,0,0,1.82.94c-.11-.53-.2-1.07-.26-1.58a6,6,0,0,1,1.28.68c.38.26.71.58,1.1.88a6.39,6.39,0,0,0,2.53,1.43c.34-.7,1.21-.48,2.29-.36s2.37.1,3-.76a12,12,0,0,1-1.48-.11,6.24,6.24,0,0,0,3.07-1,24.5,24.5,0,0,1,2.77-1.47,10.92,10.92,0,0,1-2.07,1.68,29.83,29.83,0,0,1-3.11,2c1.8-.66,3.38-1.05,4.93-1.74a7.47,7.47,0,0,0,3.91-3.52c-.45,0-1.2.53-.92-.38.54,0,1-.75,1.43-1.36s.62-1.14.9-.69c.26-1.3-.48-1.83-.41-2.57a10.14,10.14,0,0,0,1.17-4.38l-.15.17a23.78,23.78,0,0,0-2.8-4.53,17.86,17.86,0,0,0-3.38-3.35,10.75,10.75,0,0,0-1-.67,8.47,8.47,0,0,0-1.09-.58,9.49,9.49,0,0,0-2.54-.78,8.36,8.36,0,0,0-5.43.92l.32.38a10.75,10.75,0,0,0-2.06.26c.81-.21.72,0,.47.33s-.64.75-.56.95a10.09,10.09,0,0,0-4.16,3.43C10.2,24.1,11.13,24.17,11.64,23Zm-.77,15.71-.67-.5a.63.63,0,0,1-.42-.34c.14.13.28.23.42.34C10.63,38.39,11.08,38.22,10.87,38.75ZM39.26,33.9a10.06,10.06,0,0,0,.3-1.11c0,.25-.38,1,.07.76C39.56,33.71,39.45,34.11,39.26,33.9ZM14.44,34l-.09-.58-.55.38A5.24,5.24,0,0,0,14.44,34Zm6.38.61c-.25,0-.51-.11-.75-.16l0,.13c.25,0,.51.12.77.16Zm9.59-5.19a1.44,1.44,0,0,1-.12.26,1,1,0,0,1,.12-.26,1.54,1.54,0,0,0-.1-1.26,1.06,1.06,0,0,1,.18-1.2A1.22,1.22,0,0,1,31,28.3,4.27,4.27,0,0,1,30.41,29.4ZM13,38.52c-.22.54.88,1.13,1.19,1.63.61.05,0-.68-.08-1.08a1.58,1.58,0,0,1,.77.35c.07-.63-.19-.59-.59-.53A1.2,1.2,0,0,1,13,38.52ZM9,18.46l-.12.24a8.87,8.87,0,0,1,1-.36Zm3.73-2.29c.83.4,1.83-.3,2.69-.45,0-.68-1.18-1.1-2.11-.49C11.87,15.33,13.36,16.32,12.69,16.17ZM24.78,36.82a5.39,5.39,0,0,1-1.45-.08,1.66,1.66,0,0,0-1.54.54,8.89,8.89,0,0,0,1,0l-.2.15.44.39c-.4-.6-.12-.75.34-.8A5.28,5.28,0,0,0,24.78,36.82ZM21.14,14.07c.44.22,1,.5,1.47.78s.74.63.65.88a1.26,1.26,0,0,0-.5-1.17,1.78,1.78,0,0,0-.93-.38A1.13,1.13,0,0,1,21.14,14.07Zm.27,1.12c-.44.13-.24.79-1.06.37.1-.53-.35-1.86-1.54-1.23,1.08.78,1.2,1.25,2.35,1.65Zm-1.72-2-.52.21c-.58.53-.45,1.63-1.52.72a14.07,14.07,0,0,1,1.52-.72A.8.8,0,0,1,19.69,13.23Zm10.66,2.15L30,14.83c.45.26.44.43.32.55l.24.46C29.42,15.65,30.1,15.6,30.35,15.38Zm-9.58-2a13.3,13.3,0,0,1,1.55.09C21.81,13.57,20.89,13.83,20.77,13.38ZM29.64,16c-.56-.26-2.1-.68-1.86-.66C28.09,14.91,29.44,15.55,29.64,16Zm3,26.16-.14-.81-.69.49Zm4.43-7.79.18-.46-.3-.29Zm-1.13-9.49a.77.77,0,0,0,.45-.27.64.64,0,0,1,.12-.43c.07.11,0,.29-.12.43a1.28,1.28,0,0,0,.6,1c.27-.27,0-.79.09-1.1.56.24.5,1.08.42,1.66s0,.91,1.11.31c-.12.47-.55,1.87-1,1.51a4.72,4.72,0,0,0-1.63-3.14.31.31,0,0,1-.34-.14A.69.69,0,0,1,35.92,24.91Zm-9-7.3c-.28-.18-.4-.3-.43-.4a.74.74,0,0,1-.16-.87c.6.48.07.61.16.87A1.47,1.47,0,0,0,27,17.61Zm-.31,1A12.19,12.19,0,0,0,25.5,17.2l.36.66c-.29-.24-.57-.5-.88-.73a1.64,1.64,0,0,0,.49,1.06A1.44,1.44,0,0,0,26.66,18.64Zm-2.14-1.12-.1-.61.2.64-.1,0v.14c-.26-.11-.53-.23-.81-.33l-.84-.26A12.79,12.79,0,0,1,24.52,17.52ZM8.92,24.05c.82.67,1.29.41,1.67.09s.75-.79,1.26-.64a7.33,7.33,0,0,0-.84-.73c-.3-.15-.7-.09-1.07.69,0-.83.47-.87.72-.88s.34,0-.09-.9a2.2,2.2,0,0,1-.75.85c-.26.23-.51.4-.56.45a5.69,5.69,0,0,1,.38-.83C9,22,8.92,22.46,9,22.9S9.21,23.83,8.92,24.05Zm2.16,8.78c.19.31.44.58.66.88a10.34,10.34,0,0,1-.78-.84Zm10.81-8.57c0,.23-.4.48-.73.6a.57.57,0,0,1-.82-.34C21,24.35,21.64,24.56,21.89,24.26Zm-5.23,5.95a2.68,2.68,0,0,1-.35-1.08c.52-.17.58,0,.63.22s.11.62.36.69C17.12,30.57,17,30.07,16.66,30.21Zm5.47-1.68a1.51,1.51,0,0,0,.07-.38,2.64,2.64,0,0,1-.94.55Zm-2,.19s0,0,.1.07a1.53,1.53,0,0,0,.52.07A1.2,1.2,0,0,1,20.12,28.72Zm-.52-.57a1.46,1.46,0,0,1,.95.27,1.7,1.7,0,0,0,0-.55C20.25,28,19.93,28.07,19.6,28.15ZM19,28.2a1.57,1.57,0,0,1,.55.15c.24.1.23.22.15-.06-.29-.38-.19-.07-.31-.1s-.12-.41.15-.36a2.09,2.09,0,0,0,.35.75l.38.62c.28.1.37-.21.15-.37a3.4,3.4,0,0,0-.87-.48A1.33,1.33,0,0,0,19,28.2Zm2.18-.42a1,1,0,0,0,.39,0l-.1.15c-.3.12-.3,0-.29-.12h-.45a2.79,2.79,0,0,0-.27.74,1,1,0,0,1-.3.49c.16-.09.36-.68.05-.42-.05.18-.1.28-.05.3S20,29,20,29c.08-.42,0-.71.1-.9a.57.57,0,0,1,.57-.31A.71.71,0,0,1,21,27.5C21.15,27.47,21.14,27.65,21.13,27.78Zm-2.84.74c-.15.12-.43.06-.57.36a1.59,1.59,0,0,0,.1.51c.36.14.46-.06.48-.26A4.07,4.07,0,0,0,18.29,28.52ZM18,23.36c-.18.28.66.66,1.16.37,0,.32-.05.63-.06.94-.17-.59-1.21-.12-1.33-.07C17.2,24,17.75,24.05,18,23.36ZM12.4,34.07c0,.23.49.41.87.65s.73.52.59,1.1c.51-.45.31-.83-.08-1.09A6.19,6.19,0,0,0,12.4,34.07Zm-.91.88a2.25,2.25,0,0,0-.31-.31c-.24-.54.42-1.14-.52-1.39,0,.33.44.35.43.67-.42.38-.26.4.09.72A.71.71,0,0,0,11.49,35Zm15.7-2.57a5,5,0,0,0,1-.3,7.29,7.29,0,0,0,.29-1.16A6.12,6.12,0,0,1,27.19,32.38Zm-3-10.74c-.11.46-1.31,0-1.57-.28,0,.31.17.51.46.67s.62.3.91.47a.85.85,0,0,0,.36.27A2.11,2.11,0,0,0,24,22.5c-.17-.24.12-.46.22-.66h.4a8.69,8.69,0,0,0-.87-.57ZM19.55,35a3,3,0,0,1,1.92-.51C21.33,34.8,20.32,35.13,19.55,35Zm9.91-8.51c-.44-.69-.59-.39-.71-.09s-.24.65-.56.29a5.58,5.58,0,0,1,.3.66c-.48-.46-.4-.68-.25-.94s.37-.5.07-.84a6,6,0,0,1,.38.47c.36.1.37-.16.31-.49s-.21-.7,0-.88A2.52,2.52,0,0,1,29.6,26C29.69,26.44,29.61,26.75,29.46,26.47Zm-8,8.59c.84-.59,1.22-.66,1.64-.6a1.61,1.61,0,0,0,1.4-.2c-.56.81-1,.87-1.45.84A4.47,4.47,0,0,0,21.41,35.06Zm-.07-16.89.13-.11a11.64,11.64,0,0,1,1.46.57l-.14.09A12,12,0,0,0,21.34,18.17Z"/><path class="cls-2" d="M19.91,28.9c0-.1,0-.11.07-.09A.09.09,0,0,1,19.91,28.9Z"/><path class="cls-2" d="M12.81,30.17a.34.34,0,0,1-.33,0A.54.54,0,0,1,12.81,30.17Z"/><path class="cls-2" d="M12.56,28.91a.05.05,0,0,1,0,0l0-.05Z"/><path class="cls-2" d="M21.24,43.68c-.46-.75.36-.12.67-.19C21.61,43.55,21.54,44.06,21.24,43.68Z"/><path class="cls-2" d="M24,44.53a1.55,1.55,0,0,0-.89-.29C23.27,44.18,23.51,44.22,24,44.53Z"/><path class="cls-2" d="M21.82,44.59a2.64,2.64,0,0,1,1.25-.35C22.75,44.33,22.52,44.68,21.82,44.59Z"/><path class="cls-2" d="M30.23,41.43c-.61-.16-1.11.48-1.11.48,1.13-1.32-.74-.53-1-.84C29,40.73,29.31,41.18,30.23,41.43Z"/><path class="cls-2" d="M32.15,40.19a1.2,1.2,0,0,0-.3.39A.59.59,0,0,1,32.15,40.19Z"/><path class="cls-2" d="M32.29,39.41c.51-.32,1-.12,1.52,0-.22.83-1.19.55-1.66.83C32.45,39.88,32.79,39.64,32.29,39.41Z"/><path class="cls-2" d="M31.83,24.85c0,.12.17.33-.07.5l-.45-.62C31.27,24.37,31.69,24.76,31.83,24.85Z"/><path class="cls-2" d="M30.8,21.59c-.54-.48-.73.35-.9,0l.65-.78Z"/><polygon class="cls-2" points="34.53 18.06 34.67 18.33 34.45 18.08 34.53 18.06"/><path class="cls-2" d="M27.44,20.59c0,.41-.07.8-.12,1.2C27,21.3,27.37,20.49,27.44,20.59Z"/><path class="cls-2" d="M24.84,20.36l.24.43a10.93,10.93,0,0,0-1-.61A4.82,4.82,0,0,1,24.84,20.36Z"/><path class="cls-2" d="M22.07,19.36,22,19.6a7,7,0,0,0-.81-.28C21.46,19.3,21.77,19.35,22.07,19.36Z"/><path class="cls-2" d="M23.1,32.48c.37.32.22.6,0,.88a7.13,7.13,0,0,0-.79.66c-.16-.59.1-.62.39-.71S23.3,33.08,23.1,32.48Z"/><path class="cls-2" d="M19.63,29.5a1.63,1.63,0,0,1-.68-.18c.25-.16.26-.17.3-.1A.43.43,0,0,0,19.63,29.5Z"/><path class="cls-3" d="M94.91,64.26a1.33,1.33,0,0,0,.21.09C95,64.43,94.87,64.44,94.91,64.26Z"/><path class="cls-3" d="M97.48,64.11a3.44,3.44,0,0,1-2.36.24C95.65,64,96.73,62.76,97.48,64.11Z"/><path class="cls-3" d="M94.22,61.89a3.18,3.18,0,0,0,.77.26C94.71,62.69,94.59,62,94.22,61.89Z"/><polygon class="cls-3" points="94.81 63.22 94.91 63.77 94.39 63.32 94.81 63.22"/><path class="cls-3" d="M57.93,65.22a1.61,1.61,0,0,1,.29.79Z"/><path class="cls-3" d="M55.4,63.12A2.08,2.08,0,0,0,55,63C55.09,63,55.2,63,55.4,63.12Z"/><path class="cls-3" d="M59.76,64.5l-.34.18A.42.42,0,0,1,59.76,64.5Z"/><path class="cls-3" d="M77.4,60.37l.18,1.22C77,61.76,77.31,60.92,77.4,60.37Z"/><path class="cls-3" d="M48.1,54.62l-.16.42C47.91,54.83,47.92,54.63,48.1,54.62Z"/><path class="cls-3" d="M54.11,55.78a3.29,3.29,0,0,1,0,.58.27.27,0,0,1-.08-.1Z"/><path class="cls-3" d="M60.85,63.2v-.05l.36.17Q61,63.52,60.85,63.2Z"/><path class="cls-3" d="M46.3,53.52a6.81,6.81,0,0,1,.08-1A1.51,1.51,0,0,1,46.3,53.52Z"/><path class="cls-3" d="M54.92,63v0l0,0S54.94,63,54.92,63Z"/><path class="cls-3" d="M56.13,55.91a3.47,3.47,0,0,1-.36-.15C55.87,55.63,56,55.73,56.13,55.91Z"/><path class="cls-3" d="M77.4,60.37,77.33,60C77.42,60,77.43,60.17,77.4,60.37Z"/><path class="cls-3" d="M92.91,65.61c-.28,0-.37-.29-.43-.61A2.08,2.08,0,0,1,92.91,65.61Z"/><path class="cls-3" d="M2.7,61.72l-.09-.07A.08.08,0,0,1,2.7,61.72Z"/><path class="cls-3" d="M13.05,66.65a1.59,1.59,0,0,1,.14.37C13.08,67.13,13,66.92,13.05,66.65Z"/><path class="cls-3" d="M20.34,54.75c-.4.8-1.38-.3-1.83-.25l.3.49-.58-.32.21.76c-.85-.16-1.55.83-2-.39l.3,1.24c-.3-.29-.58-.59-.84-.88l.51.78a1.4,1.4,0,0,1-1.24-.11c-.39-.19-.64-.45-.71-.44l0,.47c-.11.25-.19-.06-.3-.21l.07.7c-.5-.13-.84.2-1.25.43a1,1,0,0,1-1.38-.18c-.38.06.13.27,0,.66-.35.48-.67-.17-.66-.5-.25,1.08.45.93-.26,1.65-.17-.62-.07,1.05-.61.66l.23-1.42c-.39.11-.44,1-.91.68-.33-.8,1.27-1.23.46-1.77-.23,0-.78.65-1.39,1.13s-1.26.84-1.56.26c-1.18.2-.61,2.22-1.61,1.21.1.42.2.85.33,1.25-.4.24-.63,1-1,.36.1-.58.14-1.38-.11-1.61C5.2,61,2.73,60.16,3.1,62l-.4-.3c0,.07,0,.2-.12.27L2,61.73c.18.47,1,1.1,0,1.75l-1-.3c-.2.8-.7.88-1,1.44.63,1,1.23,2,2,2.93.1-.47-.16-1,.22-1.3,1,0,.25,1.08,1.29.88l-.05-.72c0,.24,0,.36-.18.35-.44.23-.34-.25-.15-.6.62-.58,1.09.25,1.08.87,1,.37.79-1.21,1.1-1.33,0,1.44,1.64.63,2,1.44l-.1-1c1.07-.7,1.49.27,1.88.71v-.73c.51.23,1-.22,1.46-.42s.72-.1,1,1.22l0-.49c.49-.11,1.21-.61,1.58.18,0-.29.14-.65.32-.73.19,1,.71.29,1.34.1-.43-.25-.29-1.51-.69-1.82.9-1.3.83,1.41,1.67,1.36.44-.68-.47-.66-.59-1.15.62.35,1.18-.48,1.64-1s.83-.91,1.41.28l-.35.87c.55.46.82.41.71.19-.13.1-.23-.12-.32-.34,1.08-1.52,2.54,1.34,3.78.48-.23-.43-.46-.53-.57-.91.47-.63,1.25,2.19,1.94,1L23,64.47c.23-.41.68.28.68.45-.57-2.07,2-.48,1.83-3.33.78,1,2.21,1.57,2.45.86.28-1.37-.82-1.26-.89-2.47.45-.11.95,1,1.53.44.26,1.16-.76,2.64.61,3l0-.66c-.11.11-.23.38-.44.27-.51-.61,0-.82.05-1.15l1.43,0c.37,1.21-.51,1.11-.52,1.45,1-.52,1.94-2.65,3.06-2L32.64,61c1.43.81.31-2.43,1.65-.6.47-.41-.41-1.29.38-1.53.23,0,.16.45.15.62,1,.31.29-1.25,1.31-.2l-.32-1.31a7.68,7.68,0,0,1,1.68,1.81,4.82,4.82,0,0,0,.6.77c.17.18.31.25.51.13.16-1-.31-1-.47-1.8a2.25,2.25,0,0,0,1.65,1.33,2.73,2.73,0,0,1,1.84,1c-.69.67-.17,2.13-1.23,2.5.32-1.32-.44-.68-.71-.95a2.18,2.18,0,0,0,0,.83A.66.66,0,0,0,40,64a2,2,0,0,0,1.15.08c.85-.1,1.64-.34,1.38.91l.51-.93c.16.22.48,1.13,0,1.33.58-.06,1.15-.15,1.71-.23-.37-.91-.91-2.9-1.57-2-.07-1.18.79-.51.81-1.83.44,1.93.77-.54,1.59.07-.81,1.35.48,2.21.29,2.89.39-.2,1,.63,1.18,1.19a3,3,0,0,0,1.38-.19,2.23,2.23,0,0,1,1.65.08,2.61,2.61,0,0,1-.65-2.13c.35.63.92.63,1.1-.46-.7-1.06-.86-.47-1.08.23s-.42,1.5-1,.73a2.63,2.63,0,0,0-1.11-2.17,5.77,5.77,0,0,0,.66-1.81c.17,1.39.73,1.54,1.33,1.53s1.24-.21,1.76.49-.06,2.49,1.17,2.8a10.59,10.59,0,0,1-1.12.77c1.25-.65.24.81,1.29,1.13l-.4-.87c.62-.17.84,0,1.21.61-.19-.44-.37-.89-.55-1.33.33-.17.91-.35,1,.44a3.08,3.08,0,0,0,.07-.81c.08.21.24.34.62.27-.24-.14-.39,0-.42-.43,1.44.19.22-1.47,1.07-1.42a.75.75,0,0,1,.29-.89c.22,2.09,2,2.11,2.72,3.11l0,0c.46.18,1,.36,1.41.52-.28-.09-.17-.72.1-1l-.05,0c.26-.42-1-2.08.16-1.8l.73.43c-.12,0-.13-.38-.13-.54l.72.36c.1-1.07.56-.94,1.08-.7s1.12.58,1.39,0c-.2.26-.64.26-.69-.4.09-.29.43-.17.67.07l-.13-.2c.72.19,1.41.41,2.08.63-.35-.62-1.28-.35-1.15-1.25-.07-1,.74-.21,1.05-.23.14.54-.23,1.18.4,1.29,0-.28.29-1-.06-1.29a5.25,5.25,0,0,1,2.27,1.32c.08-.28-.2-.44-.29-.49V62c-.38-.22-.41-1.37-.88-.64-.56-1.73.79-.77,1.27-1.1a12.61,12.61,0,0,0-1.2-1A1.93,1.93,0,0,1,69.23,58a8.51,8.51,0,0,1,1.49.53,4.63,4.63,0,0,0,1.31.38c-.47.54-.86,0-.76,1.45.92.67.79.38,1.68.68l-.07-.08c.51-.69.85.79,1.32-.45-.07-.79-.69.66-.51-.92a10.12,10.12,0,0,1,1.08.29c-.16-1-1.11-.27-1.49-.56-.31,0,.61.3.33,1.3a1,1,0,0,1-.57-.29,1.69,1.69,0,0,1-.45-.53,18,18,0,0,1-.75-1.84c-.38-1.11.56-1.11.8-1.12a5.31,5.31,0,0,0,1.26,1.84,1.36,1.36,0,0,0,.73.31,1.61,1.61,0,0,0,.85-.08c.31-.34.63-.67,1-1,.24,1.23-.72,3.19.21,3.25l.07-.9c.32-.24.5-.29.6-.25-.14-.75-.34-1.61-.54-2.41.59-.76,1-.36,1.28.28a11.1,11.1,0,0,0,.7,2c.07-.23-.17-.43,0-.9,1.49.23,1.53,2.9,2.22,3.69.82-.43-.43-.92.4-1.8.22.68,1.32.17.84,1.17.67-1.45,1.14.63,1.06-1.2,2.08.55,3,2.93,4.91,4.49a2.48,2.48,0,0,1,.34-1.13,1.93,1.93,0,0,1-1.24-2.18c.36-.27.45.08.51.46s.1.74.25.54c-.06-.43-.44-.57-.12-1.31.81-.61.57.61.88.9l-.32.31a5.07,5.07,0,0,1,.43,1.94c.06.53.22.9,1,.84.68-.9.11-.78.31-2,.11.25.46.07.78,0s.62,0,.78.56a5.42,5.42,0,0,1-.81,0c.55.42,1.1.37,1.54.75-.06-.25-.11-.51-.23-.6.47.34,1.07.25,1.42.95l-.06-1.28c-.17.65-1,.77-1.2.07,0-1.12.81-.43,1.15-.63-.78,0-1.18-.66-1.5-1a1.41,1.41,0,0,0-.47-.45c-.16-.09-.35-.08-.63.1l.15.41c-.38.43-.76.3-1-.08s-.48-.79-.76-.83a1.4,1.4,0,0,0,.38-.87,2.2,2.2,0,0,1-2-.2c-.31-.13-.63-.33-1-.51a6.87,6.87,0,0,0-1.2-.45l.24-1.34-.55.77c-1-.14.58-1.22,0-1.47.2.12.07.23,0,.45-.3-1.5-1,.41-1.33-.18-.32,1,.77.95-.2,1.93-.28-1.49-2.09-1.94-1.1-4a5.88,5.88,0,0,1-1.77-.63c-.58-.3-1.13-.69-1.75-1A16,16,0,0,0,77.3,53a7.44,7.44,0,0,0-1.78-.73c-.38.35.14.34,0,.64-.33-.72-1.15-.59-1.79-.41s-1.08.48-1.08-.12A3.45,3.45,0,0,0,72,53.87a2.73,2.73,0,0,0-1.76-1l.49.3,0,.16L70,53l0-.08a18.48,18.48,0,0,0-2.58,0,5.36,5.36,0,0,1-2.61-.46c1,.54.16,1.44.65,1.8-1.16-1.67-3-1.17-4.07-.55a2.28,2.28,0,0,0,.4,1l-1-.48.25.41c-1.11.79-3-.76-3.36.29.49.07.62.44.87,1a3.5,3.5,0,0,1-2.44.06,1.2,1.2,0,0,1,.17.36c-.18.21-.54-.18-.79-.36l.16.94c-.5-.36-1,.23-1.53-.49,0,.53-.37.31-.71,0s-.73-.71-1-.48c-.21-.22.46,1.09-.15,1,0-2-.78-.08-.67-2.3-.17.25-.35.51-.54.77l0-1.11c-.3,1-.5.75-.64.32s-.3-1.06-.71-.79c0,.24.06.33,0,.48-.19-.27-.69-.49-.18-1-.38-.05-1.48-.82-1.18.44.09-.63.48,0,.67.28-.21.93-.7.44-1.06,1.43,0-.11,0-.29-.06-.45l-.21.56a1.92,1.92,0,0,0-.87-.94,1.18,1.18,0,0,1-.56-1.14c-.11.28-.29.46-.48.33l.37-1.13c-.21,0-.42-.13-.63-.2-.11.58-.2,1.16-.29,1.74-.44,0-.59-.46-.76-1.06-.08-.29-.13-.59-.22-.87a1.91,1.91,0,0,0-.49-.71c-.43.89-.95.5-1.57.05A4.19,4.19,0,0,0,41,51.11a1.46,1.46,0,0,0-1.31.4,11.9,11.9,0,0,1,1.07.74,4.52,4.52,0,0,0-1.52-.3,5.41,5.41,0,0,0-1.07.15,3.64,3.64,0,0,1-2.12,0,9.44,9.44,0,0,1,1.72-.62c.61-.15,1.21-.5,3-1a11.82,11.82,0,0,1-2.22-.09c-.33,0-.64-.1-1-.17l-.83-.15a3.36,3.36,0,0,0-2.94.39c.2.45.72.7.32,1.24-.52-1-1.63.3-1.57-.93-.48.5-.38,1.6-.65,1.83l-1.95-1.1.1.22c-1.11,1.65-2.22,1.47-3.72,1.11S23.18,52,22,53l.23.6c-.32-.24-.64-.47-.93-.71.68.45,0,.83.12,1.38-.68-.28-1.36-.56-2-.86C19.59,53.91,20,55.1,20.34,54.75ZM45.73,54l.26.17c.08,0,.14,0,.17.11L46,54.16C45.8,54.27,45.53,54.71,45.73,54Zm35.69,2.17a7.49,7.49,0,0,0-.6-.49c.19,0,.48.6.55,0C81.43,55.8,81.66,55.93,81.42,56.16ZM42.76,61.28l.08.69.48-.68Zm-4.55-1.49c.13.18.24.35.35.52l.06-.15c-.11-.17-.23-.35-.36-.53Zm-7-5.83a.42.42,0,0,1,.14.13.79.79,0,0,1-.14-.13c-.58-.47-.46,1-1.13-.31C30.32,52.39,30.87,53.53,31.23,54Zm13.29,1.3c.26-.74-.16-1-.13-1.63-.29.06-.25.83-.33,1.31-.15,0-.2-.07-.3-.28C43.22,56.23,44.41,54.32,44.52,55.26Zm9.9,1.68-.09.09c.15.2.32.37.49.56Zm2.08.43c.48,1,1.09.58,1.6.67-.15-.87-.88-1.72-1.34-1.49C56,55.94,56.88,57.92,56.5,57.37Zm-20-2.54a6.7,6.7,0,0,1,.84,1c.33.38.67.61,1.16.15l-.66-.5.17-.07-.15-.72c.06,1-.18,1-.48.77S36.73,54.86,36.52,54.83ZM61.2,56.35c.69.41,1.87.81,2,1.52-.4-1.29-1.36-1.61-1.57-1.52S61.42,56.44,61.2,56.35Zm.65,1.36c-.2.25.2,1-.51.63-.16-.7-1-2.26-1.43-1.48,1,1,1.22,1.57,2.13,1.89ZM60,55.46l-.21.27c-.13.65.3,2.12-.66.84l.66-.84C59.83,55.58,59.89,55.48,60,55.46Zm6.63-2-.46-.38c.37,0,.45.16.46.38l.37.33C66.34,54.44,66.64,53.9,66.64,53.48Zm-6,2.05.89-.18C61.36,55.61,61,56.11,60.68,55.53Zm6-.83a9.74,9.74,0,0,1-1.27.5C65.29,54.48,66.31,54.36,66.66,54.7Zm19.58,6.09-.71.69.42.34Zm-5.57-2-.25-.23-.36.35ZM74.25,57a1.92,1.92,0,0,0,0-.68.71.71,0,0,1-.18-.43c.09,0,.16.19.18.43a.58.58,0,0,0,.85-.09c0-.48-.44-.44-.56-.77.4-.52.84.09,1.12.5s.53.47.73-1.15c.2.45.82,1.5.35,1.95a2.46,2.46,0,0,0-2.54.24c0,.17-.12.3-.23.31A.92.92,0,0,1,74.25,57Zm-8,1.29a.57.57,0,0,1-.44-.17,1.42,1.42,0,0,1-.57-.93c.59.25.38.68.57.93A.74.74,0,0,0,66.24,58.25Zm.41,1.37c-.45-.33-.92-.67-1.4-1l.56.57-.88-.37C65.3,59.63,66.25,60.39,66.65,59.62Zm-1.77-.11-.39-.69.47.69h-.08l.08.16c-.43,0-.86,0-1.3,0C64.07,59.6,64.47,59.54,64.88,59.51ZM52.13,61c-.57,2.67,1.13,1.89,1.47,3.17,0-.92.43-2.28-.82-2.24,1-.9.79,1.71,1.29-.57-.5.24-1.14-.46-1.22-.54l.58-.1C53.06,59.07,52.56,61.54,52.13,61Zm-6.47-.41-.66-.4.74.26ZM27,60.65c.2.6-.46,1.94-1,.86C26.49,61.21,27,61.14,27,60.65Zm-8.11,2,1,.31c.16,1.43-.83.13-1.18.46C18.47,62.8,18.89,63.19,18.93,62.69Zm-5.9.43-.26-.25c0,.48.1,1,.17,1.44Zm.9,2.83A.66.66,0,0,1,13.3,65C13.5,65.34,13.71,65.66,13.93,66ZM7.62,63.62l-.1,1.32-.43-.08ZM8.3,63a1.61,1.61,0,0,1-.07.78.55.55,0,0,0,.87.38c.13-.62-.23-.31-.38-.52.17,0,.53-.34.76,0-.66,1-.42,1-.73,1.94-1.19.29-.73-.88-.52-1.76A1.43,1.43,0,0,1,8.3,63Zm3.46.67a.83.83,0,0,0,.33-.34v.25c-.18.38-.27.26-.34.09a2.59,2.59,0,0,1-.5.25c-.27.77.29,1.43.42,1.91-.3-.29-.43-1.11-.95-.72,0,.25-.07.39.2.44l-.64,0c-.41-1.23.32-1.42,1-1.68a1.53,1.53,0,0,1,.27-.52C11.64,63.25,11.69,63.46,11.76,63.62ZM8.22,61.9a3,3,0,0,0,.22-.84l-.16-.32A.7.7,0,0,0,8.22,61.9Zm15.85-2.1c-.11.28.56,1.07.89.71l.11,1.21c-.23-.75-1-.43-1.11-.48C23.51,60.22,24,60.58,24.07,59.8Zm20.39.42c-.1-.45-1.42.09-1-1.39C42.49,60.28,43.83,60.38,44.46,60.22Zm.59-1.56a.61.61,0,0,0,.22.12c.21.39-.13,1.54.58,1-.06-.34-.38,0-.43-.34.23-.72.12-.61-.15-.7A.19.19,0,0,0,45.05,58.66ZM33.67,56.84l-.59-1c-.2.07-.41.13-.61.21Zm-6.87-.55a.45.45,0,0,1-.73.51c.25.79.69.59,1.08.59a.29.29,0,0,0,.27.06.53.53,0,0,0-.27-.06c-.19-.16-.18-.59-.25-.88l.13-.28-.57-.1ZM16,58.1c-.24.67-.31.44-.54.23C15.55,58,15.81,57.89,16,58.1Zm14-3.29c-.59.56.59,1.15.24,1.66l.34-.17c-.4,1-.62-.82-1-.49l.23-.22c0-.83-.53-.44-.72-1C29.4,54.15,30.26,54.59,30,54.81Zm-14.52,2.8c-.45.87-.46-.82-.72-1C15.1,55.92,15.11,57.43,15.51,57.61Zm8.82-4.43V53l.73.29v.17Z"/><path class="cls-3" d="M15.17,66a.45.45,0,0,1-.46,0A.9.9,0,0,1,15.17,66Z"/><path class="cls-3" d="M45.59,64.71a.52.52,0,0,1,.25-.36A.66.66,0,0,1,45.59,64.71Z"/><path class="cls-3" d="M47,65.53H47l0,.08Z"/><path class="cls-3" d="M92.53,66.68c.4,1-.34.19-.6.2C92.21,66.86,92.28,66.14,92.53,66.68Z"/><path class="cls-3" d="M90.56,64.94a1,1,0,0,0,.56.65C91,65.61,90.78,65.48,90.56,64.94Z"/><path class="cls-3" d="M92.1,65.44a1.81,1.81,0,0,1-.53.23.93.93,0,0,1-.45-.08C91.38,65.57,91.59,65.21,92.1,65.44Z"/><path class="cls-3" d="M85.68,63.65a.6.6,0,0,0,.65.65c-1.42,0-.3,1.18-.36,1.67C85.29,65.39,85.63,64.68,85.68,63.65Z"/><path class="cls-3" d="M84.44,62.56a.54.54,0,0,0,.35.06A.26.26,0,0,1,84.44,62.56Z"/><path class="cls-3" d="M83.73,62.83c-.27-.36,0-1,.13-1.6.7-.16.35,1,.58,1.33C84.18,62.41,84,62.18,83.73,62.83Z"/><path class="cls-3" d="M72.44,61.47c.07.08.26.08.25.47h-.56C71.91,61.71,72.32,61.55,72.44,61.47Z"/><path class="cls-3" d="M70.21,59.61c-.51,0-.14,1-.41.77L69.68,59C69.86,59.22,70,59.4,70.21,59.61Z"/><polygon class="cls-3" points="70 52.78 70.2 52.91 69.98 52.87 70 52.78"/><path class="cls-3" d="M68.12,61.27c.21.47.41.94.61,1.41A2.28,2.28,0,0,1,68.12,61.27Z"/><path class="cls-3" d="M66.65,62.69l.4.37a9.8,9.8,0,0,0-1-.17Z"/><polygon class="cls-3" points="64.23 62.74 64.25 63.07 63.48 62.95 64.23 62.74"/><path class="cls-3" d="M36.08,60.85c-.11-.62.1-.84.37-.93s.58,0,.72-.21C37,61.32,36.37,59.19,36.08,60.85Z"/><path class="cls-3" d="M16.27,65.34c.42,0,.85.13,1.26.15C16.65,66.11,17.26,65.53,16.27,65.34Z"/><path class="cls-4" d="M40.21,37.56s-.08,0-.13,0S40.16,37.45,40.21,37.56Z"/><path class="cls-4" d="M39.08,37.85a1.06,1.06,0,0,1,1-.32C40,37.78,39.86,38.65,39.08,37.85Z"/><path class="cls-4" d="M41.37,38.94l-.46-.06C40.87,38.53,41.17,39,41.37,38.94Z"/><polygon class="cls-4" points="40.63 38.2 40.39 37.87 40.77 38.07 40.63 38.2"/><path class="cls-4" d="M53.74,25.83a2,2,0,0,1-.27-.55Z"/><path class="cls-4" d="M55.19,27.26a.63.63,0,0,0,.19,0C55.35,27.35,55.29,27.33,55.19,27.26Z"/><path class="cls-4" d="M53.12,26.29l.11-.11C53.21,26.25,53.17,26.3,53.12,26.29Z"/><path class="cls-4" d="M45.79,31.76c-.26-.18-.51-.35-.69-.45C45.16,30.9,45.53,31.47,45.79,31.76Z"/><path class="cls-4" d="M60.5,31.66l-.07-.32C60.51,31.47,60.57,31.6,60.5,31.66Z"/><path class="cls-4" d="M57.35,32.27a2.49,2.49,0,0,1-.14-.41l.06.06Z"/><path class="cls-4" d="M52.85,27.13v0L52.67,27C52.7,26.94,52.76,27,52.85,27.13Z"/><path class="cls-4" d="M61.6,31.77c.1.17.2.37.33.65A1.33,1.33,0,0,1,61.6,31.77Z"/><path class="cls-4" d="M55.4,27.29v0h0S55.4,27.3,55.4,27.29Z"/><path class="cls-4" d="M56.23,32.33l.22.08C56.41,32.51,56.32,32.45,56.23,32.33Z"/><path class="cls-4" d="M45.79,31.76l.23.16C46,31.94,45.89,31.87,45.79,31.76Z"/><path class="cls-4" d="M40.47,36.42c.08-.08.24.09.4.26A1.55,1.55,0,0,1,40.47,36.42Z"/><path class="cls-4" d="M77.61,22.2h0S77.63,22.21,77.61,22.2Z"/><path class="cls-4" d="M73.21,21.5c0-.07,0-.15-.08-.26S73.2,21.3,73.21,21.5Z"/><path class="cls-4" d="M70.28,29.78c.19-.51.58.41.8.44L71,29.83l.26.31-.07-.57c.39.23.77-.42,1,.49L72,29.14l.46.69-.28-.61c.42-.24,1.14.41,1.23.41l-.07-.35c.06-.18.13,0,.22.16l-.1-.52c.66.1.77-1.08,1.54-.58.2-.14-.12-.16-.13-.45s.37-.05.43.18c-.09-.81-.4-.54-.19-1.21.19.39-.15-.74.16-.6l.17,1c.16-.18,0-.81.27-.71.32.44-.33,1.18.16,1.33.24-.08.45-2.42.95-1.87.42-.55-.25-1.62.35-1.36l-.4-.68c.1-.29,0-.81.29-.6.09.4.26.92.4,1-.57-.78.49-1.2,0-2.21l.2,0a.39.39,0,0,1,0-.22l.26-.08c-.16-.22-.56-.31-.38-1.08l.4-.2a6,6,0,0,1,0-1.28l-1.21-1.09c0,.34.23.57.17.92-.32.31-.28-.62-.57-.14l.15.46c0-.18-.08-.23,0-.29.1-.3.15.05.16.34-.1.58-.4.2-.5-.21-.39.09,0,1.06-.13,1.24-.23-1-.64,0-.89-.41l.18.62c-.26.78-.54.17-.72,0l.09.51c-.41-.07-.49,1.69-.91-.13l.07.34c-.15.17-.37.58-.57,0a1.05,1.05,0,0,1,0,.55c-.14-.7-.27-.15-.5,0,.17.18.2,1.1.38,1.31-.28,1-.41-1-.72-1-.14.49.21.49.28.84-.52-.45-.73,2.22-1.21.42l.13-.61c-.22-.38-.33-.36-.28-.19.05-.07.09.1.13.27-.45,1-1-1.25-1.57-.81A5.33,5.33,0,0,1,70,23c-.21.38-.49-1.74-.82-1l.14.38c-.11.26-.29-.29-.29-.41.22,1.55-.92.06-.89,2.13-.33-.82-1-1.4-1.14-.89-.09,1,.4,1,.46,1.85-.19.05-.45-.78-.69-.42-.17-.86.28-1.86-.38-2.24V23c0-.08.1-.27.2-.17.26.47,0,.59,0,.83L66,23.47c-.22-.9.19-.76.18-1-.46.29-.76,1.74-1.33,1.22l.12.33c-.74-.66,0,1.73-.73.38-.18.29.3.94,0,1.1-.1,0-.12-.33-.13-.45-.5-.22,0,.9-.58.17l.32.93c-.62-.54-1.55-2.09-1.86-1.57.21.72.45.59.7,1.12-.91-1.19-1.36.21-2.07-.36,0-.66-.67-1.36-.49-2,.36.92.34.26.55.31-.89-2-.92,1.35-1.54-.4l.15.75c-.12-.09-.49-.58-.42-.85l-.43.66c.38.47,1.18,1.6,1.08.78.39.73-.08.58.33,1.42-.75-1.09-.07.58-.53.45-.16-1.11-.84-1.29-1-1.8-.06.24-.51-.15-.74-.47-.27,0-.5,1-1,.76a3.23,3.23,0,0,1,.83,1.3c-.3-.32-.5-.24-.25.53,1.11,1.2-.42-1.83.46-1.11.44.83.67,1,1,1.15a7.5,7.5,0,0,0,.32,1.38c-1-1.74-1,.11-1.73-.64-.39-.46-.66-1.67-1.18-1.7l.18-.71c-.24.67-.3-.5-.72-.57l.35.54c-.17.2-.28.12-.56-.26l.52.84c-.07.16-.24.36-.45-.18a4.9,4.9,0,0,0,.18.57c-.09-.14-.18-.22-.3-.14.12.08.15,0,.26.27-.59,0,.26,1-.08,1.07a.79.79,0,0,1,.08.64c-.56-1.44-1.26-1.39-1.75-2.12v0l-.66-.38c.13.07.2.5.14.71l0,0c0,.28.8,1.48.24,1.24l-.39-.33c.06,0,.11.27.14.39l-.38-.29c.25,1.46-1-.48-1.06.34.06-.16.28-.14.4.32,0,.2-.19.09-.34-.09l.09.15c-.38-.19-.75-.35-1.13-.52.28.44.7.28.77.9s-.33.11-.48.13c-.16-.38-.07-.82-.41-.9,0,.19,0,.69.24.9a5.18,5.18,0,0,1-1.45-.85c0,.2.2.29.26.33l0-.12c.25.13.48.93.59.41.61,1.19-.26.53-.44.83l.81.62c.14,1.95-1.64.65-2.32,1,0-.47.34-.21-.17-1.12-.66-.22-.49,0-1,0l.06,0c0,.59-.76-.15-.44.74.38.45,0-.64.62.38a5.37,5.37,0,0,0-.56.21c.49.5.55-.21.83-.18.12-.13-.36,0-.67-.68.51-.23,1,.36,1.74,1.2.53.63.19.83.11.88-.88-.89-1.62-1.14-1.81-.38l.19.91c-.63-.56-1.33-2-1.65-1.55l.45.47c0,.27,0,.38,0,.4.42.3.89.65,1.3,1,.46,1.29-1-.18-1.49-.2.1.13.25.11.47.38-.35.57-1.72-.45-2.24-.36.16.61.54.12.93.91-.38-.15-.19.64-.69,0,.72.91-.42.37.56,1-.44.88-1.81.54-2.92.55a3.14,3.14,0,0,1,.52.7c.23-.19.78-.18,1.37.39.19.59-.82-.38-.67-.06.25.17.4,0,.74.52.18.68-.47,0-.68,0l-.09-.29c-.91-.32-1.44-1.45-1.74-.85.25.7.35.47.88,1.17-.32-.19-.11.82-.78.18l.24-.28c-.36-.05-.53.11-.86,0,.13.14.26.29.35.31-.33-.1-.49.12-.92-.27l.53.77c-.16-.4.07-.68.44-.31.47.67-.12.49-.2.64.7-.23,1.58.91,1.67.09l-.25-.17c-.14-.77.86-.06,1.09-.26a1.37,1.37,0,0,0,.35.6c.13-1,1-.95,1.39-1.73L46,37l-.37-.59c.14-.46.61.78.77.59-.07.05-.12-.06-.23-.19.79.42-.16-.68.17-.63-.51-.56-.55,0-1-.85.81.42,1.15-.34,2.1,1.06.34-1,1.74-.6,2.38-.82-.06-.3-.16-.17-.25-.39.71.72.46-1,.89-.26a5.24,5.24,0,0,0-.34-1.08,1.45,1.45,0,0,0,.88.37l-.26-.14,0-.11.36.19,0,0c.59,0,1.06-.51,1.91.12-.5-.39-.4-1-.67-1.22.84,1.13,1.38.9,1.75.56a3,3,0,0,0-.34-.67l.5.4-.18-.31c.36-.43,1.48.77,1.52,0-.25-.08-.37-.34-.58-.76a1.54,1.54,0,0,1,1.22,0,1.5,1.5,0,0,1-.15-.25c.06-.16.31.1.48.22l-.25-.65c.33.22.46-.21.9.21-.18-.75.83.44,1,0,.16.12-.51-.66-.2-.74.56,1.4.4-.11,1,1.41l.05-.65.33.74c-.29-1.51.56.54.72,0a1.7,1.7,0,0,1-.15-.32c.16.12.43.14.38.6.17-.07.87.09.34-.63.16.43-.2.14-.36,0-.2-.66.14-.49,0-1.23,0,.07.11.17.17.27l-.1-.42c.57.62.73,0,1.27.85-.05-.21,0-.38.09-.37l.26.83.34-.11L61.76,31c.32-.36,1,.95,1.36,1.07-.31-1.43.75.35.69-1l-.35-.32c.6.12.47-.74,1.1-.38a3.13,3.13,0,0,0-.69,1.59c.45-.74,1.24.54,1.6-.41-.12-.33-.31-.51-.26-.89.28.7.53-.16.64.71.11-.33,0-1.13,0-1.28l.82.94,0-.17c.62-2.19,2.12.95,3,0l-.09-.46.35.64c-.26-.42,0-.59,0-1l.79.91C70.58,30.49,70.42,29.58,70.28,29.78Zm-8.61,1.5H61.5c0,.05,0,.07-.11,0h.11C61.55,31.13,61.5,30.77,61.67,31.28ZM47.34,35.61l.28,0c0,.08-.33-.06,0,.24C47.51,35.77,47.43,35.83,47.34,35.61Zm12.86-9.9L60,25.3l.08.59Zm2.17-.66-.32-.27v.12l.32.27ZM66,29.14,66,29a.21.21,0,0,1,.07.1c.26.38.11-.66.46.31C66.5,30.33,66.21,29.47,66,29.14Zm-4.35.91c.17.56.45.59.64.95.07-.15-.22-.6-.36-.92,0-.07.09,0,.2.06C61.78,29,62.08,30.59,61.68,30.05ZM56.94,31.5l0-.08-.36-.35Zm-1.14-.19c-.39-.65-.62-.4-.88-.47.2.61.69,1.21.88,1.05C56.28,32.3,55.52,30.93,55.8,31.31ZM64,28.4c-.2-.18-.74-1.42-.86-.66l.31.28,0,.07.18.49C63.15,27.24,63.83,28.38,64,28.4ZM53.72,31.81c-.39-.34-1-.67-1.16-1.16.4.9.87,1.17.95,1.13S53.6,31.74,53.72,31.81Zm-.52-1c.06-.15-.24-.72.14-.39.19.5.78,1.62.89,1.12-.59-.75-.8-1.16-1.27-1.45Zm1.19,1.69.06-.18c0-.43-.45-1.47.19-.52l-.19.52C54.46,32.45,54.45,32.51,54.39,32.52Zm-2.32,1,.26.25c-.12,0-.2-.1-.26-.25l-.23-.21C51.93,32.91,52,33.28,52.07,33.56Zm2-1.15-.38.06C53.76,32.31,53.87,32,54.08,32.41Zm-2.33.33c.1-.12.41-.42.38-.34C52.33,32.89,52,33,51.75,32.74Zm-7.17,3.49-.3-.64-.22.09Zm1.49-2.15.15,0-.14-.33Zm2.19-1.71a3.91,3.91,0,0,0,.26.44.6.6,0,0,1,.23.21s-.13-.08-.23-.21-.26,0-.21.28c.21.27.31.14.48.31.2.82-1.47-1-.16.93-.22-.19-.82-.56-.93-1,.3,0,.59-.5.56-1,0-.11-.08-.21,0-.25A.74.74,0,0,1,48.26,32.37Zm2.84-2a.32.32,0,0,1,.23.11,1.5,1.5,0,0,1,.45.64c-.31-.17-.31-.47-.45-.64S51.16,30.31,51.1,30.32Zm-.48-.93.86.66-.37-.4.48.27C51.28,29.36,50.66,28.84,50.62,29.39Zm.88.07.3.48-.34-.48h0l-.07-.11.63,0ZM57,28.36c-.49-1.91-.93-1.13-1.37-2,.21.62.39,1.64.87,1.43-.19.78-.72-1.08-.39.55.16-.19.59.19.64.23l-.21.16C57.11,29.84,56.7,28.06,57,28.36Zm2.48-1.29.36.05-.34.07Zm8-2.41c-.11-.45.19-1.34.44-.5C67.72,24.32,67.47,24.31,67.48,24.66Zm3.58-.37-.43-.35c0-1.05.35,0,.51-.19C71.26,24.26,71.08,23.93,71.06,24.29Zm2.46-.23.14.16-.21-1Zm-.57-2c.06-.07.35.14.3.61Zm2.57.55-.19-.92.17-.07Zm-.13.65a1.54,1.54,0,0,1-.11-.55c-.1-.24-.24-.32-.37-.05,0,.47.13.16.22.27s-.15.37-.28.21a6.33,6.33,0,0,0,0-1.52c.36-.47.38.43.45,1.09A1.67,1.67,0,0,1,75.39,23.28ZM74,23.55a.82.82,0,0,0-.09.3l0-.18c0-.3.08-.23.13-.12a1.64,1.64,0,0,1,.16-.26,3.57,3.57,0,0,0-.36-1.3c.13.16.27.73.41.36,0-.17,0-.29-.12-.27l.22-.15a1.14,1.14,0,0,1-.15,1.36,2.19,2.19,0,0,1,0,.42C74.07,23.79,74,23.65,74,23.55ZM75.6,24a3,3,0,0,0,.06.64l.13.17A.71.71,0,0,0,75.6,24Zm-6.81,1.68c0-.19-.24-.84-.38-.63l0-.88c.1.57.44.44.49.49C69,25.42,68.84,25.1,68.79,25.64ZM60,26.94c.18.24.42-.52.8.52C60.62,26.24,60.17,26.64,60,26.94Zm.31,1.18a.17.17,0,0,0-.12,0c-.2-.18-.46-1-.54-.49.13.2.13-.11.26.09.15.53.16.42.28.4S60.29,28.17,60.33,28.12ZM64.8,27l.34.75.23-.13Zm2.92.87c-.1-.45.17-.52.27-.3-.12-.6-.3-.48-.46-.52s-.06-.07-.11-.06a.2.2,0,0,0,.11.06,2.72,2.72,0,0,1,.14.66l0,.19.23.12Zm4.67,0c.12-.49.15-.32.28-.16S72.52,28,72.39,27.84Zm-5.94.78c.22-.36-.32-.88-.2-1.21l-.13.09c.11-.68.31.64.44.43l-.09.14c0,.59.25.36.36.81C66.75,29.14,66.36,28.76,66.45,28.62Zm6.24-.42c.22-.62.28.6.45.7C73,29.45,72.91,28.35,72.69,28.2Zm-3.92,2.13v.12l-.27-.31V30Z"/><path class="cls-4" d="M72.5,22.07c.07-.08.12-.07.16,0A.16.16,0,0,1,72.5,22.07Z"/><path class="cls-4" d="M58.25,24.38a.54.54,0,0,1,0,.3A.74.74,0,0,1,58.25,24.38Z"/><path class="cls-4" d="M57.55,24.21h0l0,0Z"/><path class="cls-4" d="M40.14,35.7c-.56-.51,0-.17.1-.24C40.16,35.53,40.45,36,40.14,35.7Z"/><path class="cls-4" d="M41.52,36.21a.74.74,0,0,0-.46-.2C41.1,36,41.2,36,41.52,36.21Z"/><path class="cls-4" d="M40.82,36.34c0-.22.11-.33.24-.33C41,36.09,41.1,36.38,40.82,36.34Z"/><path class="cls-4" d="M43.11,34.8c-.37-.3-.42,0-.42,0,.17-.65-.58-.64-.82-.9C42.23,33.87,42.56,34.34,43.11,34.8Z"/><path class="cls-4" d="M43.8,34.61a.14.14,0,0,0-.06.15C43.71,34.64,43.75,34.61,43.8,34.61Z"/><path class="cls-4" d="M43.71,34.13c.22,0,.56.39.85.68,0,.43-.55-.18-.76-.2C43.91,34.53,44,34.51,43.71,34.13Z"/><path class="cls-4" d="M47.24,29.05c-.07,0-.16,0-.3-.23l.27-.16C47.4,28.75,47.26,29,47.24,29.05Z"/><path class="cls-4" d="M48.91,29.75c.23-.08-.23-.68,0-.59l.45.88Z"/><polygon class="cls-4" points="51.12 34.24 51.02 34.19 51.1 34.18 51.12 34.24"/><path class="cls-4" d="M49.51,28.33l-.64-.9A2.09,2.09,0,0,1,49.51,28.33Z"/><polygon class="cls-4" points="50.05 27.25 49.77 27.01 50.33 27.11 50.05 27.25"/><polygon class="cls-4" points="51.31 27.23 51.25 27 51.65 27.13 51.31 27.23"/><path class="cls-4" d="M63.29,24.06c.26.89-.3.63-.38.9C62.72,23.8,63.38,25.25,63.29,24.06Z"/><path class="cls-4" d="M72.11,22.54l-.49-.16C71.94,22,71.72,22.36,72.11,22.54Z"/><path class="cls-4" d="M43.1,7.28A.34.34,0,0,0,43,7.19C43.09,7.15,43.13,7.16,43.1,7.28Z"/><path class="cls-4" d="M42,6.86a1.06,1.06,0,0,1,1,.33C42.79,7.32,42.2,8,42,6.86Z"/><path class="cls-4" d="M43.25,9.08l-.34-.32C43.08,8.45,43.08,9,43.25,9.08Z"/><polygon class="cls-4" points="43.07 8.05 43.07 7.64 43.27 8.03 43.07 8.05"/><path class="cls-4" d="M60.84,6.11a1.9,1.9,0,0,1,.14-.6Z"/><path class="cls-4" d="M61.05,8.11a.39.39,0,0,0,.12.15C61.11,8.27,61.09,8.22,61.05,8.11Z"/><path class="cls-4" d="M60.06,6.05h.16C60.16,6.08,60.1,6.09,60.06,6.05Z"/><path class="cls-4" d="M50.94,5.87c-.1-.31-.2-.59-.28-.78C50.94,4.8,50.9,5.47,50.94,5.87Z"/><path class="cls-4" d="M62.06,14.88l.16-.28C62.19,14.74,62.15,14.88,62.06,14.88Z"/><path class="cls-4" d="M59.47,13.33c.06-.18.11-.31.15-.4V13Z"/><path class="cls-4" d="M59.32,6.53v0l-.06-.23C59.33,6.29,59.35,6.35,59.32,6.53Z"/><path class="cls-4" d="M62.73,15.68a4.88,4.88,0,0,1-.21.69A1.59,1.59,0,0,1,62.73,15.68Z"/><path class="cls-4" d="M61.19,8.27h0v0Z"/><path class="cls-4" d="M58.61,12.69l.11.21C58.63,13,58.6,12.85,58.61,12.69Z"/><path class="cls-4" d="M50.94,5.87l.08.26C51,6.12,51,6,50.94,5.87Z"/><path class="cls-4" d="M44,6.5c.11,0,.14.22.17.46A1.79,1.79,0,0,1,44,6.5Z"/><path class="cls-4" d="M79.55,21.66l0,0S79.54,21.68,79.55,21.66Z"/><path class="cls-4" d="M77.71,17.42l.17-.21C78,17.19,77.87,17.3,77.71,17.42Z"/><path class="cls-4" d="M69.41,20.11c.5-.19,0,.67.1.83l.24-.34-.1.38.41-.42c0,.43.72.31.12,1l.66-.66-.32.75.34-.57c.4.16.26,1.06.31,1.11l.24-.25c.18-.06,0,.13,0,.25l.37-.37c.24.55,1.27,0,1.24.83.21.07.07-.18.3-.36.4-.16.23.26.07.44.63-.51.25-.6.91-.8-.22.36.55-.53.59-.2l-.78.68c.24,0,.69-.44.74-.17-.23.49-1.16.37-1,.84.16.13,2.27-.91,2-.21.67.06,1.27-1,1.34-.4l.39-.67c.3-.07.72-.39.66-.06-.3.28-.66.68-.63.82.38-.88,1.29-.16,1.89-1.13l.08.2a.38.38,0,0,1,.18-.13l.21.21c.11-.26,0-.66.74-.88l.39.27c.44-.38.73-.36,1.12-.61.1-.55.2-1.11.28-1.68-.27.22-.36.5-.7.62-.44-.13.38-.57-.2-.6l-.31.37c.14-.11.16-.18.25-.15.31-.06,0,.16-.21.32-.55.21-.39-.27-.1-.57-.28-.32-.93.49-1.13.51.71-.71-.37-.57-.14-1l-.43.49c-.81.2-.45-.38-.38-.66l-.38.36c-.18-.4-1.69.51-.42-.87l-.25.25c-.23,0-.69,0-.36-.47a1.22,1.22,0,0,1-.49.27c.5-.52,0-.33-.28-.44,0,.25-.78.8-.85,1.07-.94.32.58-.91.36-1.14-.49.17-.28.46-.52.71,0-.69-2.23.72-1.06-.74l.57-.25c.16-.41.09-.48,0-.35.08,0,0,.14-.14.27-1.08.26.39-1.62-.34-1.76a5.55,5.55,0,0,1-.42.62c-.45.08,1-1.46.22-1.25l-.21.35c-.27.08,0-.42.13-.49-1.06,1.15-.65-.7-2.21.64.42-.8.35-1.69-.09-1.43-.8.57-.47.94-1.09,1.57-.16-.11.29-.86-.13-.8.52-.7,1.58-1,1.41-1.78l-.35.32c.08,0,.26-.1.26,0-.18.51-.44.39-.62.56l-.33-.6c.51-.77.69-.36.86-.52-.54-.16-1.78.55-1.82-.18l-.16.31c0-1-1.23,1.22-.79-.27-.33.08-.47.87-.8.74-.09-.05.15-.31.23-.4-.2-.52-.64.64-.52-.31l-.45.89c0-.84.39-2.58-.21-2.42-.35.67-.08.74-.28,1.28.17-1.46-1.12-.8-1.24-1.7.44-.5.45-1.46,1-1.77-.37.92.08.42.19.61.37-1,0-.95-.45-.83s-.79.33-.43-.53l-.4.65c0-.14,0-.75.26-.9l-.78.18c0,.62-.19,2,.28,1.31-.19.8-.45.38-.71,1.28.18-1.31-.45.38-.69,0,.62-.92.24-1.52.47-2-.21.13-.28-.47-.25-.86-.18-.21-1,.4-1.27-.08a3,3,0,0,1-.21,1.52c0-.44-.23-.5-.56.24.06,1.61.9-1.66,1.1-.55a2.1,2.1,0,0,0,0,1.57,7,7,0,0,0-.67,1.23c.44-2-.78-.53-.87-1.6,0-.6.61-1.69.23-2.06l.6-.41c-.62.34.11-.58-.18-.92l-.08.65c-.26,0-.3-.1-.26-.58l-.16,1c-.15.07-.41.11-.22-.44a5.45,5.45,0,0,0-.24.55c0-.16,0-.28-.13-.3,0,.13.12.1,0,.37-.43-.41-.47,1-.75.75a.76.76,0,0,1-.35.55c.5-1.46-.07-1.85,0-2.72v0l-.26-.73c0,.15-.17.52-.35.64h0c-.21.19-.32,1.66-.61,1.11l-.09-.51a1,1,0,0,1-.13.39l-.11-.47c-.73,1.28-.44-1-1.05-.39.15-.09.31.06.11.49-.12.16-.2,0-.2-.27l0,.17-.56-1.11c0,.52.38.66,0,1.19s-.32-.12-.45-.21c.1-.39.45-.68.23-1-.08.19-.42.54-.37.86a5.48,5.48,0,0,1-.61-1.58.44.44,0,0,0,0,.42l0-.11c.12.26-.2,1,.21.69-.25,1.32-.53.24-.85.38l.26,1C55,8.75,54.4,6.66,53.65,6.49c.28-.37.4,0,.54-1-.38-.58-.36-.34-.8-.63l0,.06c-.32.49-.52-.56-.8.35,0,.58.42-.5.27.66l-.58-.16c.1.7.57.16.77.34.17,0-.29-.19-.11-.94.54.1.56.89.65,2,0,.83-.35.78-.45.77C53,6.7,52.59,6.1,52,6.58l-.39.84c-.17-.82.11-2.38-.4-2.24l.08.65c-.13.24-.21.31-.26.3.16.5.32,1.06.45,1.58C51.06,9,50.78,7,50.4,6.64c0,.18.14.24.15.59-.6.26-1.1-1.35-1.56-1.6-.23.58.36.41.21,1.28-.22-.35-.53.4-.56-.41,0,1.16-.55,0-.15,1.16-.86.43-1.75-.62-2.64-1.28a3.65,3.65,0,0,1,0,.87c.29,0,.72.32.86,1.13-.19.59-.43-.8-.49-.45.09.29.28.28.28.86-.25.65-.37-.27-.55-.38l.1-.29c-.55-.79-.32-2-.9-1.71-.21.7,0,.58,0,1.45-.15-.35-.56.61-.73-.3l.35-.09c-.25-.23-.48-.22-.67-.51a1.51,1.51,0,0,0,.1.45c-.2-.27-.45-.19-.58-.76v.93c.09-.41.44-.51.52,0,0,.82-.37.33-.52.4.69.23.74,1.67,1.28,1l-.1-.28c.33-.71.71.46,1,.43a1.39,1.39,0,0,0-.06.69c.67-.72,1.32-.19,2.1-.59l.18.93,0-.7c.39-.28,0,1,.27.94-.09,0-.06-.12-.07-.3.38.82.27-.63.5-.4-.08-.75-.46-.29-.3-1.28.4.82,1.1.42,1,2.1.84-.63,1.71.57,2.32.77.13-.28,0-.23,0-.46.13,1,1-.57.84.3a4.81,4.81,0,0,0,.38-1.06,1.37,1.37,0,0,0,.45.83l-.11-.26,0-.12.17.37,0,.06c.47.34,1.12.21,1.38,1.24-.14-.62.28-1,.23-1.38,0,1.41.49,1.57,1,1.54a3.19,3.19,0,0,0,.16-.74l.12.62.05-.35c.55-.14.65,1.48,1.11,1-.14-.21-.06-.5,0-1a1.46,1.46,0,0,1,.89.76,1.66,1.66,0,0,1,0-.28c.14-.09.16.28.21.47l.23-.66c.1.37.47.1.52.71.34-.69.32.88.68.67,0,.19.06-.84.33-.69-.49,1.43.35.17-.21,1.7l.46-.46-.25.77c.77-1.33.06.74.52.42a1.94,1.94,0,0,1,.11-.34c0,.2.2.39-.13.7.15.06.51.64.63-.25-.17.43-.22,0-.25-.22.29-.64.41-.28.78-1a1.94,1.94,0,0,0-.07.32l.21-.38c0,.83.51.47.3,1.46.11-.19.23-.32.31-.23l-.38.79.31.12.42-1.2c.46-.06,0,1.36.18,1.68.76-1.24.23.76,1.09-.25v-.45c.31.48.84-.27,1,.43a2.92,2.92,0,0,0-1.54.71c.82-.27.41,1.19,1.28.75.15-.31.16-.58.46-.81-.32.69.43.25-.11.94.29-.16.77-.82.93-.87l-.15,1.18.08-.15c1-.55,1.11,0,1.15.65s0,1.36.55,1.34l.29-.36-.29.66c.18-.45.44-.38.73-.68l-.27,1.13C69,20.77,69.65,20.08,69.41,20.11Zm-6.3-4.76L63,15.24s-.08,0-.07-.08l.07.08C63.12,15.16,63.33,14.86,63.11,15.35ZM49.89,9.88l.25.12c0,.05-.22-.24-.18.17C49.93,10.11,49.84,10.11,49.89,9.88Zm15.93.38.09-.46-.34.48Zm2,1,0-.41-.07.09,0,.41Zm-.43,5.43a.7.7,0,0,1,0-.12.41.41,0,0,1,0,.12c-.11.43.56-.4.07.51C66.85,17.85,67.28,17.07,67.41,16.73Zm-3.47-2.29c-.26.52-.09.73-.22,1.12.15-.06.26-.58.39-.91.07,0,.08,0,.09.17C64.72,13.72,63.84,15.1,63.94,14.44Zm-4.28-2,.07,0,0-.5Zm-.73-.84c.12-.75-.21-.71-.36-.93-.23.6-.24,1.38,0,1.38C58.67,12.71,59,11.17,58.93,11.64Zm7.67,3.14c0-.27.5-1.52-.13-1l0,.4-.08,0-.21.47C66.86,13.4,66.53,14.66,66.6,14.78Zm-9.53-4A3.63,3.63,0,0,1,56.9,9.1c-.25,1-.06,1.47,0,1.48S57,10.6,57.07,10.73Zm.21-1.09c.14-.09.26-.72.35-.22-.17.5-.41,1.75,0,1.41a5.2,5.2,0,0,0-.09-1.91Zm-.13,2,.15-.1c.24-.37.56-1.43.46-.29a4.43,4.43,0,0,0-.46.29C57.24,11.67,57.19,11.71,57.15,11.68Zm-2.39-.6.05.36c-.11-.06-.09-.2-.05-.36l0-.3C55.05,10.48,54.85,10.79,54.76,11.08Zm2.21.34-.32-.18C56.79,11.15,57.07,11,57,11.42Zm-2-1.19c.16,0,.57-.07.5,0C55.37,10.71,55.05,10.52,55,10.23ZM47.36,8.76l.14-.7L47.27,8Zm2.44-.85.13.06L50,7.62Zm2.72-.06a2.65,2.65,0,0,0-.05.5.67.67,0,0,1,.05.3s-.05-.13-.05-.3-.24-.1-.33.1c0,.35.15.3.18.54-.32.79-.52-1.73-.67.65,0-.29-.31-1-.15-1.35.24.17.76,0,1-.44,0-.13.07-.23.12-.24A1.08,1.08,0,0,1,52.52,7.85ZM56,7.92a.33.33,0,0,1,.11.24,1.44,1.44,0,0,1-.05.78c-.13-.33.05-.56.05-.78S56,8,56,7.92Zm.2-1,.26,1,0-.54.22.51C56.71,7.29,56.55,6.49,56.18,6.9Zm.64.6-.07.57,0-.59,0,0V7.37l.45.44Zm4.88,2.64c.88-1.76,0-1.47.25-2.4-.24.61-.77,1.5-.27,1.66-.64.47.15-1.29-.64.16.24,0,.31.53.33.6l-.26,0C60.83,11.33,61.67,9.71,61.7,10.14Zm2.68.67.22.27-.29-.18Zm7.24,3.94c.27-.38,1.16-.75.68,0C72.05,14.69,71.88,14.51,71.62,14.75Zm2.54,2.52,0-.55c.8-.68.21.28.46.29C74.3,17.41,74.46,17.07,74.16,17.27Zm1.62,1.86-.06.2.73-.75Zm1.31-1.61c.08,0,.08.38-.33.6Zm1,2.51.68-.65.15.11Zm-.62.22a2,2,0,0,1,.41-.38c.15-.21.13-.38-.17-.34-.37.29-.07.2-.11.33s-.39.08-.32-.12a6.4,6.4,0,0,0,1.26-.83c.61.06-.14.56-.66,1A1.91,1.91,0,0,1,77.46,20.25Zm-1-1a.78.78,0,0,0-.3.09l.13-.12c.27-.15.24-.07.17,0h.31a3.29,3.29,0,0,0,.87-1c0,.21-.44.64-.06.56.12-.12.23-.18.16-.26l.24.11c-.49.7-.85.65-1.21.62a1.86,1.86,0,0,1-.37.2C76.3,19.43,76.39,19.31,76.45,19.22ZM77,20.8a3.16,3.16,0,0,0-.51.39l-.08.19C76.78,21.32,77,21,77,20.8Zm-5.27-4.43c.17-.08.49-.72.24-.71l.65-.59c-.38.44-.07.62-.08.69C72,16.41,72.17,16.06,71.72,16.37Zm-6.87-5.31c0,.3.66-.11.23.9C65.76,10.93,65.16,10.93,64.85,11.06Zm-.57,1.08a.38.38,0,0,0-.08-.09c0-.26.36-1.06-.06-.72,0,.24.17,0,.12.24-.24.5-.17.42-.06.48S64.22,12.15,64.28,12.14Zm3.9,2.21-.32.76.24.07ZM69.4,17c.28-.38.5-.22.4,0,.37-.48.18-.53.1-.67a.09.09,0,0,0,0-.12.24.24,0,0,0,0,.12,3.2,3.2,0,0,1-.4.53l-.17.1,0,.25Zm2.67,3.41c.46-.2.34-.07.29.12C72.16,20.68,72,20.62,72.07,20.43Zm-4-3.78c.39-.09.44-.83.75-1l-.15,0c.56-.39-.27.66,0,.61l-.15,0c-.41.42-.11.42-.37.81C67.85,17.22,67.9,16.68,68.05,16.65Zm3.89,4.22c.62-.2-.34.56-.32.74C71.08,21.81,71.94,21.12,71.94,20.87Zm-3.76-1.46-.09.08.06-.38.08-.08Z"/><path class="cls-4" d="M76.82,17.14c.11,0,.13.05.12.11S76.83,17.2,76.82,17.14Z"/><path class="cls-4" d="M65.26,8a.56.56,0,0,1-.18.24A.69.69,0,0,1,65.26,8Z"/><path class="cls-4" d="M64.85,7.36h0v0Z"/><path class="cls-4" d="M44.12,5.73c-.16-.74.11-.13.21-.14C44.23,5.6,44.21,6.13,44.12,5.73Z"/><path class="cls-4" d="M44.93,6.94a.72.72,0,0,0-.25-.43C44.74,6.49,44.81,6.56,44.93,6.94Z"/><path class="cls-4" d="M44.29,6.65c.15-.17.28-.2.39-.14C44.58,6.55,44.5,6.84,44.29,6.65Z"/><path class="cls-4" d="M47,6.74c-.12-.46-.36-.22-.36-.22.52-.43-.09-.87-.13-1.21C46.85,5.47,46.85,6.05,47,6.74Z"/><path class="cls-4" d="M47.68,7a.17.17,0,0,0-.14.09C47.59,7,47.64,7,47.68,7Z"/><path class="cls-4" d="M47.89,6.55c.17.11.21.64.28,1-.23.37-.33-.47-.49-.61C47.81,7,47.93,7,47.89,6.55Z"/><path class="cls-4" d="M53.71,4.57a.37.37,0,0,1-.1-.37l.32,0C54,4.43,53.78,4.52,53.71,4.57Z"/><path class="cls-4" d="M54.61,6.15c.23.09.24-.68.33-.49l-.19,1Z"/><polygon class="cls-4" points="53.63 11.06 53.58 10.95 53.65 11 53.63 11.06"/><path class="cls-4" d="M56,5.39l0-1.11A2,2,0,0,1,56,5.39Z"/><polygon class="cls-4" points="57.04 4.87 56.97 4.5 57.35 4.93 57.04 4.87"/><polygon class="cls-4" points="58.05 5.66 58.14 5.44 58.38 5.78 58.05 5.66"/><path class="cls-4" d="M69.2,11.25c-.45.82-.66.22-.9.35C69,10.65,68.42,12.14,69.2,11.25Z"/><path class="cls-4" d="M76.2,17.09l-.17-.5C76.55,16.62,76.1,16.66,76.2,17.09Z"/><path class="cls-4" d="M101.63,4.46s0,.08,0,.12S101.55,4.56,101.63,4.46Z"/><path class="cls-4" d="M102.18,5.27a.76.76,0,0,1-.54-.69C101.86,4.56,102.66,4.27,102.18,5.27Z"/><path class="cls-4" d="M102.35,2.81l.14.44C102.2,3.44,102.45,3,102.35,2.81Z"/><polygon class="cls-4" points="102.01 3.8 101.82 4.16 101.85 3.73 102.01 3.8"/><path class="cls-4" d="M90,9.08a3.83,3.83,0,0,1,.38.49Z"/><path class="cls-4" d="M88.48,7.93a.31.31,0,0,0-.16,0S88.38,7.88,88.48,7.93Z"/><path class="cls-4" d="M90.35,8.66l0,.1C90.3,8.69,90.31,8.65,90.35,8.66Z"/><path class="cls-4" d="M95.48,5l.33.71C95.67,6,95.59,5.38,95.48,5Z"/><path class="cls-4" d="M82.2,5.5l.21.26C82.28,5.68,82.16,5.59,82.2,5.5Z"/><path class="cls-4" d="M85.06,3.68A3.68,3.68,0,0,1,85.3,4l-.08,0Z"/><path class="cls-4" d="M90.32,7.88v0l.18.13C90.48,8.05,90.43,8,90.32,7.88Z"/><path class="cls-4" d="M81.12,6a6.29,6.29,0,0,1-.61-.39A1.22,1.22,0,0,1,81.12,6Z"/><path class="cls-4" d="M88.3,7.93h0Z"/><path class="cls-4" d="M86.16,3.32l-.24,0C85.94,3.17,86,3.21,86.16,3.32Z"/><path class="cls-4" d="M95.48,5l-.11-.24S95.45,4.86,95.48,5Z"/><path class="cls-4" d="M100.66,4.85c-.08,0,0-.25,0-.48A1.52,1.52,0,0,1,100.66,4.85Z"/><path class="cls-4" d="M80.59,22.44v0S80.57,22.45,80.59,22.44Z"/><path class="cls-4" d="M81.9,19.82l.27,0C82.24,19.9,82.09,19.87,81.9,19.82Z"/><path class="cls-4" d="M75.72,13.88c.31.45-.68.3-.83.51l.4.09-.41.09.54.23c-.42.26,0,1-1,.77l.89.29L74.5,16h.68c0,.5-.9,1-.93,1.1l.34.06c.14.14-.09.13-.23.18l.52.09c-.36.68.73,1.16,0,1.84.07.25.18-.09.47,0s-.06.4-.3.42c.81.09.63-.28,1.22.09-.43.1.76,0,.54.3l-1-.07c.14.2.79.18.64.42-.5.25-1.09-.58-1.34-.08,0,.3,2.32.87,1.71,1.26.52.44,1.62-.07,1.33.43.24-.1.46-.19.7-.27.29.1.81.1.58.28-.4,0-.93.13-1,.25.8-.4,1.17.4,2.21.06l0,.12a.8.8,0,0,1,.22,0l.06.16a1.28,1.28,0,0,1,1.1-.2l.19.21c.57-.05.81,0,1.27,0a9,9,0,0,1,1.14-.39,7.18,7.18,0,0,1-.93,0c-.29-.16.64-.05.18-.22h-.47c.18,0,.24,0,.29,0,.29.07-.06.06-.35,0-.57-.1-.16-.21.24-.2,0-.19-1-.18-1.21-.24,1,0,0-.34.5-.4l-.63,0c-.73-.3-.08-.35.16-.39l-.52-.07c.14-.2-1.51-.77.32-.5l-.34-.06c-.13-.14-.46-.41.09-.35a1.83,1.83,0,0,1-.51-.22c.71.14.22-.11.15-.31-.21.05-1.08-.26-1.33-.21-.82-.55,1.06.07,1.11-.13-.41-.28-.52-.06-.86-.13.56-.15-1.76-1.43.05-1l.49.36c.43,0,.45-.06.28-.11,0,.06-.13,0-.29,0-.74-.76,1.5-.09,1.31-.6a7,7,0,0,1-.72-.22c-.25-.33,1.7.57,1.18,0l-.39-.12c-.18-.19.38,0,.48.06-1.4-.7.34-.53-1.36-1.68.84.26,1.64.21,1.29-.14-.72-.64-1-.36-1.71-.86.08-.15.86.21.73-.14.74.45,1.29,1.28,1.93,1.18l-.37-.29c0,.07.15.21,0,.2-.5-.16-.46-.36-.65-.5l.47-.26c.8.47.48.58.67.72,0-.39-.91-1.5-.2-1.44l-.3-.17c.89.1-1.25-1.17.17-.61-.1-.3-.85-.52-.74-.79,0-.07.3.17.39.25.47-.08-.62-.64.26-.4l-.83-.53c.79.07,2.38.84,2.25.33-.6-.46-.67-.26-1.18-.56,1.35.51.82-.73,1.66-.55.4.52,1.23.87,1.47,1.41-.77-.61-.37-.09-.54-.07,1.74,1.28-.19-1.36,1.23-.14L87,11.56a1.78,1.78,0,0,1,.74.57l-.07-.63c-.5-.31-1.68-1-1.16-.35-.67-.47-.26-.5-1-1.06,1.12.66-.25-.5.17-.54.69.87,1.27.83,1.63,1.22-.08-.21.43,0,.75.23.18,0-.14-1,.32-.85a4.39,4.39,0,0,1-1.18-1c.36.2.47.11,0-.53-1.38-.78,1.12,1.5.15,1.09-.71-.61-1-.69-1.32-.72A9.74,9.74,0,0,0,85.09,8c1.57,1.22.71-.42,1.66,0,.5.33,1.21,1.34,1.6,1.29l.17.64c-.11-.61.43.39.76.4l-.48-.42c0-.2.15-.15.51.15l-.72-.68c0-.15,0-.35.4.11L88.64,9c.11.12.21.18.27.09-.12-.05-.11,0-.29-.2.45-.06-.58-.9-.32-1A1,1,0,0,1,88,7.34c.93,1.23,1.43,1.1,2,1.74l0,0,.61.34a1.15,1.15,0,0,1-.32-.64h0c0-.25-1-1.32-.53-1.12l.38.28a1.34,1.34,0,0,1-.21-.35l.37.27c-.54-1.36.83.45.71-.31,0,.15-.18.12-.36-.31,0-.18.12-.08.27.09l-.1-.14c.32.18.64.38.94.58-.27-.44-.57-.33-.73-.91s.25-.09.36-.08c.17.37.18.77.44.88a2.54,2.54,0,0,0-.31-.87,3.78,3.78,0,0,1,1.15,1,.54.54,0,0,0-.21-.35l0,.11c-.2-.16-.45-.94-.48-.47-.59-1.2.15-.47.25-.72l-.67-.7c-.11-.94.24-1.08.67-.94s.9.49,1.17.43c0,.44-.28.11.06,1.1.45.38.34.18.69.3l0,0c0-.56.47.37.36-.56-.2-.55-.09.59-.38-.54a3.09,3.09,0,0,1,.43,0c-.28-.65-.43,0-.62-.11-.1.09.26.09.39.85-.36.06-.64-.64-1.16-1.63-.37-.74-.05-.84,0-.87.62,1.08,1.07,1.52,1.36.92l.07-.91c.35.76.51,2.31.8,2.08l-.18-.62c0-.25.08-.34.11-.34-.21-.46-.46-1-.7-1.43,0-1.39.77.57,1.07.81,0-.17-.15-.21-.22-.55C96,3.19,96.58,4.81,96.88,5c.15-.59-.28-.38-.22-1.26.19.34.43-.44.45.38,0-1.16.46,0,.12-1.16.8-.47,1.55.71,2,1.51a3.67,3.67,0,0,1,.2-.85c-.24-.06-.53-.43-.54-1.25.29-.55.26.85.37.51s-.2-.32-.1-.89c.37-.59.32.33.45.48l-.15.27c.3.89-.24,2,.29,1.84.37-.63.17-.55.41-1.39,0,.35.7-.43.51.5l-.31,0c.12.31.31.38.33.71a1.42,1.42,0,0,0,.1-.45c0,.32.28.33.13.9l.41-.85c-.26.35-.55.31-.42-.19.32-.75.44-.16.59-.18-.46-.45,0-1.83-.73-1.45v.3c-.53.58-.54-.63-.86-.69a1.31,1.31,0,0,0,.23-.65A1.64,1.64,0,0,1,99,1.3a1.77,1.77,0,0,0-1.15.06L97.68.42l-.06.7c-.41.28,0-1-.31-.94.11,0,.08.12.1.29-.46-.82-.29.64-.54.42.11.74.48.27.34,1.26-.41-.8-1.09-.34-1.24-2a1.44,1.44,0,0,1-1.43.18A7.09,7.09,0,0,0,93.13,0c0,.31.12.21.13.45-.53-.89-.77.91-1,.07a4.18,4.18,0,0,0,.09,1.13,1.2,1.2,0,0,0-.82-.51l.24.17,0,.12-.34-.24V1.13c-.65,0-1.17.4-2-.23.52.4.37,1,.64,1.25-.81-1.17-1.43-.89-1.82-.52a2.84,2.84,0,0,0,.37.65l-.53-.36.2.29c-.32.47-1.62-.54-1.58.2.27,0,.43.27.69.66a1.72,1.72,0,0,1-1.22.25.81.81,0,0,1,.2.21c0,.16-.34,0-.53-.11l.39.58c-.37-.14-.37.32-.92,0,.39.66-1-.18-1,.28-.19-.06.7.46.43.63-1-1.13-.34.24-1.42-1l.17.64L82.91,4c.82,1.3-.74-.25-.69.37.13.11.2.13.26.22-.2,0-.48.08-.6-.37-.14.14-.91.34-.09.75-.34-.32.14-.23.35-.19.47.52.06.52.54,1.11a2.62,2.62,0,0,0-.27-.17l.27.34c-.79-.29-.65.36-1.56-.14.15.16.23.32.1.38l-.64-.59-.25.3,1,.73c-.09.48-1.36-.26-1.77-.13,1,1-.87.19-.07,1.25l.48,0c-.57.29,0,.89-.66,1A4,4,0,0,0,79,7.2c0,.9-1.4.44-1.1,1.47.3.17.58.17.77.51-.68-.35-.32.49-1-.09.13.33.78.82.82,1L77.23,10l.16.07c.53,1,0,1.26-.7,1.46s-1.5.38-1.38,1.11l.42.19-.74,0c.51,0,.48.35.84.55l-1.24.22C75,13.76,75.81,14.11,75.72,13.88Zm5.57-7.44.17-.08c0-.05,0-.09.1-.05l-.1.05C81.48,6.5,81.7,6.8,81.29,6.44ZM95.69.86,95.4.78c0-.06.28.2.16-.2C95.61.64,95.71.62,95.69.86ZM85.39,10.5l.4.24-.38-.45Zm-1.11,1.36.38.06-.08-.08-.38-.07Zm-5.25-1,.12,0-.12,0c-.45-.09.38.55-.54.11C77.86,10.34,78.68,10.74,79,10.86Zm2.88-3.35c-.43-.39-.68-.26-1-.47,0,.17.5.39.79.6,0,.08-.06.07-.2.05C82.4,8.47,81.29,7.26,81.91,7.51Zm3.75-3.2v.08l.44.24Zm1.14-.09c.52.55.68.28.93.31-.3-.57-.89-1.07-1-.88C86.11,3.35,87.15,4.53,86.8,4.22ZM81,10.1c.26,0,1.43.69,1,0l-.39,0,0-.08-.44-.28C82.36,10.54,81.15,10,81,10.1Zm7.68-6.67a3.4,3.4,0,0,1,1.21,1.11c-.45-.88-.93-1.14-1-1.1S88.84,3.49,88.72,3.43Zm.59.93c0,.16.32.69-.07.39-.23-.47-.94-1.53-1-1a7.36,7.36,0,0,0,1.37,1.31ZM88,2.8,88,3c.08.43.64,1.4-.12.55L88,3C87.93,2.88,87.93,2.81,88,2.8Zm2.37-1.14L90.1,1.4c.14,0,.21.11.26.26l.21.23C90.45,2.33,90.45,2,90.36,1.66Zm-2,1.2.37-.08C88.63,2.93,88.56,3.26,88.31,2.86Zm2.32-.35c-.11.12-.41.4-.39.32C90.05,2.34,90.43,2.28,90.63,2.51Zm7.71-.61-.19.68.21.08Zm-2.28.9-.12,0,0,.36Zm-2.29.7A3,3,0,0,0,93.63,3a.91.91,0,0,1-.14-.27s.09.11.14.27.24,0,.25-.2-.24-.24-.34-.45c0-.86,1,1.48.41-.82.15.26.57.81.54,1.24-.26-.09-.66.24-.72.72,0,.12,0,.23,0,.25A.7.7,0,0,1,93.77,3.5ZM91.22,4.94A.38.38,0,0,1,91,4.8a1.83,1.83,0,0,1-.43-.65c.29.19.3.48.43.65A.56.56,0,0,0,91.22,4.94Zm.46.94-.76-.72.34.41-.42-.29C91.15,5.83,91.69,6.39,91.68,5.88ZM91,5.73l-.3-.48.33.48h0l.07.11-.53-.09ZM86.61,7.26c1.14,1.61,1.18.82,1.83,1.52-.39-.52-.9-1.43-1.21-1.14-.13-.76,1,.85.12-.58-.06.21-.55-.06-.61-.08l.12-.19C86,5.92,87,7.47,86.61,7.26ZM85.2,9.12l-.3.08L85.12,9Zm-3.75,5.65c.41.21,1,.91.17.56C81.6,15.12,81.73,15,81.45,14.77Zm-1.39,2.54.48-.13c.94.46-.15.22,0,.43C80,17.46,80.37,17.49,80.06,17.31Zm-.66,1.88-.18,0,1,.18Zm2,.27c0,.06-.23.17-.66,0ZM80.34,21l.93.06,0,.12Zm-.62-.22a2,2,0,0,1,.56,0c.25,0,.35-.1.11-.25-.46-.07-.18.06-.3.09s-.33-.18-.15-.24a8.31,8.31,0,0,0,1.48.34c.39.32-.49.15-1.14.06A2.3,2.3,0,0,1,79.72,20.78Zm.06-1.09a1.38,1.38,0,0,0-.27-.16l.18,0c.28.11.2.13.09.13l.2.19a5.48,5.48,0,0,0,1.33.13c-.18,0-.76,0-.44.17.17,0,.28.06.29,0l.09.17c-.85,0-1-.23-1.27-.47a2.79,2.79,0,0,1-.39-.15C79.52,19.68,79.66,19.69,79.78,19.69ZM79,20.81a2.88,2.88,0,0,0-.63-.07l-.18.07A.79.79,0,0,0,79,20.81ZM80,15c.13.14.81.32.71.1l.74.48c-.51-.27-.58,0-.64,0C80,15.33,80.39,15.38,80,15Zm4.89-5.62c-.27-.14,0,.58-.88-.13C84.79,10.22,84.9,9.72,84.86,9.42ZM84,8.54a.19.19,0,0,0,.1,0c.26.07.88.7.67.22-.2-.13,0,.14-.25,0-.38-.39-.33-.3-.42-.23S84,8.48,84,8.54Zm-2.62,3.13-.74-.35-.07.23ZM78.85,13c.41.22.29.46.06.39.54.29.56.1.69,0a.09.09,0,0,0,.11,0,.18.18,0,0,0-.11,0A3,3,0,0,1,79,13l-.12-.15-.24.09ZM76.32,16.8c.39.32.22.28,0,.33C76.13,17,76.12,16.85,76.32,16.8Zm2.78-5.28c.11.4.85.39,1,.71l0-.15c.42.54-.67-.24-.6,0l0-.15c-.44-.39-.42-.08-.82-.31C78.52,11.37,79.06,11.36,79.1,11.52Zm-3.24,5.41c.47.46-.67,0-.83.17C74.59,16.7,75.64,17.08,75.86,16.93Zm.38-4.74-.09-.07.42,0,.09.08Z"/><path class="cls-4" d="M81.56,19.18c.06.07,0,.1,0,.11A.08.08,0,0,1,81.56,19.18Z"/><path class="cls-4" d="M87.47,11a.71.71,0,0,1-.17-.25A1.21,1.21,0,0,1,87.47,11Z"/><path class="cls-4" d="M88,11h0l0,0Z"/><path class="cls-4" d="M100.26,5.51c-.19.73-.12.09-.19.06S100.35,5.11,100.26,5.51Z"/><path class="cls-4" d="M100.11,4.13a.82.82,0,0,0,0,.48C100.1,4.61,100.08,4.52,100.11,4.13Z"/><path class="cls-4" d="M100.48,4.61c-.16.1-.27.09-.32,0S100.4,4.36,100.48,4.61Z"/><path class="cls-4" d="M98.41,4c0,.47.25.27.25.27-.47.35-.08.86-.12,1.21C98.35,5.23,98.45,4.66,98.41,4Z"/><path class="cls-4" d="M97.9,3.65A.19.19,0,0,0,98,3.57C98,3.68,97.93,3.68,97.9,3.65Z"/><path class="cls-4" d="M97.7,4.08A2.88,2.88,0,0,1,97.52,3c.22-.36.27.48.38.62C97.8,3.65,97.7,3.59,97.7,4.08Z"/><path class="cls-4" d="M94.14,6.93c0,.05.1,0,.18.31l-.18.06C94,7.16,94.12,7,94.14,6.93Z"/><path class="cls-4" d="M93,5.83c-.18,0,.16.69,0,.56l-.33-.93Z"/><polygon class="cls-4" points="91.43 1.07 91.53 1.14 91.44 1.13 91.43 1.07"/><path class="cls-4" d="M92.59,7l.53,1A3.08,3.08,0,0,1,92.59,7Z"/><path class="cls-4" d="M92.34,8l.23.27c-.13-.07-.26-.11-.4-.17Z"/><path class="cls-4" d="M91.44,7.83l.09.21-.32-.14Z"/><path class="cls-4" d="M84.34,13c-.76-.52-.23-.59-.35-.83C84.87,12.93,83.5,12.17,84.34,13Z"/><path class="cls-4" d="M81.25,18.75l.32-.24C81.82,18.88,81.54,18.58,81.25,18.75Z"/><path class="cls-4" d="M105.21,23.67s0,.06,0,.1S105.09,23.71,105.21,23.67Z"/><path class="cls-4" d="M105.2,24.57a.66.66,0,0,1,0-.8C105.34,23.85,106.14,24,105.2,24.57Z"/><path class="cls-4" d="M106.72,22.68l-.14.42C106.24,23.11,106.71,22.87,106.72,22.68Z"/><polygon class="cls-4" points="105.89 23.32 105.53 23.52 105.8 23.19 105.89 23.32"/><path class="cls-4" d="M94.53,21.62a4.65,4.65,0,0,1,.07.62Z"/><path class="cls-4" d="M93.85,19.83c-.06-.07-.09-.09-.13-.1S93.79,19.73,93.85,19.83Z"/><path class="cls-4" d="M95,21.42l-.08.06C94.89,21.42,94.92,21.4,95,21.42Z"/><path class="cls-4" d="M100.34,21l-.18.75C99.87,21.93,100.19,21.34,100.34,21Z"/><path class="cls-4" d="M90,14.48l0,.32C90,14.66,90,14.53,90,14.48Z"/><path class="cls-4" d="M93.08,14.42a2.82,2.82,0,0,1,0,.43l-.05-.07Z"/><path class="cls-4" d="M95.27,20.75v0l.08.21C95.31,21,95.29,20.92,95.27,20.75Z"/><path class="cls-4" d="M89,14.27a4.85,4.85,0,0,1-.3-.66A1.44,1.44,0,0,1,89,14.27Z"/><path class="cls-4" d="M93.71,19.73h0Z"/><path class="cls-4" d="M94.14,14.68a1.19,1.19,0,0,1-.18-.15C94,14.45,94.09,14.54,94.14,14.68Z"/><path class="cls-4" d="M100.34,21l.06-.25S100.4,20.85,100.34,21Z"/><path class="cls-4" d="M104.23,23.51c0-.06.14-.21.32-.35A1.83,1.83,0,0,1,104.23,23.51Z"/><path class="cls-4" d="M79,26.12h0S79,26.11,79,26.12Z"/><path class="cls-4" d="M82.18,25.52l.15.22C82.34,25.82,82.26,25.7,82.18,25.52Z"/><path class="cls-4" d="M81.44,17.1c0,.53-.61-.27-.8-.23l.23.34L80.55,17l.25.53c-.4-.12-.5.59-1-.2l.43.83-.61-.53.44.49c-.25.34-1.07-.08-1.13,0l.18.29c0,.19-.12,0-.23-.07l.27.45c-.56.11-.17,1.23-1,1-.09.18.16.11.29.37s-.26.15-.41,0c.41.71.53.37.64,1-.3-.3.42.63.13.59l-.54-.88c0,.22.33.73.1.74-.42-.3-.26-1.19-.68-1.15-.14.15.72,2.34.13,2,0,.63.88,1.37.36,1.34l.57.48c.06.29.34.74.07.63-.24-.34-.58-.74-.7-.74.73.51.21,1.22,1,2l-.15,0a.38.38,0,0,1,.11.19l-.13.15c.2.15.5.11.73.85l-.16.3a8.48,8.48,0,0,1,.56,1.14l1.23.63a4.36,4.36,0,0,1-.51-.78c.06-.37.44.48.41,0L81,28.19c.09.15.14.19.13.26.07.3-.11,0-.24-.26-.2-.55.16-.29.39,0,.2-.18-.42-1-.45-1.14.56.81.38-.22.73.11l-.38-.52c-.16-.78.28-.29.48-.14l-.27-.45c.29,0-.36-1.66.64-.1l-.18-.3c0-.19,0-.62.36-.17A1.37,1.37,0,0,1,82,25c.36.61.23.07.33-.12-.18-.12-.55-1-.76-1.11-.18-1,.66.82.85.72-.08-.49-.33-.42-.5-.72.51.31-.29-2.22.69-.65l.12.6c.29.3.35.27.27.12,0,.07-.1-.08-.19-.23,0-1,1.14,1,1.35.46a5.48,5.48,0,0,1-.4-.65c0-.4.91,1.56.88.79l-.22-.35c0-.26.3.24.33.35-.63-1.43.6-.18,0-2.14.48.73,1.12,1.19,1,.7-.19-.94-.55-.89-.82-1.72.13-.07.53.7.62.34.33.81.29,1.79.84,2.11L86.3,23c0,.07,0,.26-.1.18-.3-.44-.16-.57-.22-.8l.49.08c.38.85.06.75.13,1,.23-.31.11-1.73.63-1.26l-.15-.32c.65.6-.38-1.68.45-.39.07-.29-.4-.9-.18-1.06.06,0,.14.31.17.43.41.2-.16-.88.4-.17l-.39-.91c.57.51,1.46,2,1.6,1.54-.25-.71-.4-.59-.65-1.11.81,1.17,1-.14,1.56.46.07.65.57,1.39.5,2-.33-.92-.25-.27-.39-.34.78,2,.49-1.23,1,.55l-.14-.75a1.82,1.82,0,0,1,.32.87l.24-.57c-.26-.52-.87-1.72-.75-.91-.32-.75,0-.56-.32-1.42.59,1.15,0-.56.38-.37.15,1.09.63,1.38.73,1.9,0-.22.34.24.49.58.16.07.32-.87.63-.53a5.21,5.21,0,0,1-.5-1.43c.2.37.33.33.21-.47-.73-1.38.2,1.86-.37,1-.28-.89-.44-1.08-.72-1.3a9.89,9.89,0,0,0-.2-1.39c.68,1.85.74,0,1.28.92.24.54.34,1.77.68,1.93l-.16.63c.18-.58.16.55.41.74l-.18-.62c.11-.14.18,0,.32.41l-.26-.95c.06-.14.19-.28.27.3,0-.24,0-.43-.06-.6,0,.16.09.26.17.22s-.09,0-.13-.33c.37.18-.06-1.06.18-1a1,1,0,0,1,0-.64,11.26,11.26,0,0,0,.78,2.54v0l.3.59a1.35,1.35,0,0,1,0-.71h0c.07-.24-.2-1.67.1-1.23l.16.45a1.39,1.39,0,0,1,0-.41l.15.41c.22-1.45.42.81.67.11-.08.12-.19,0-.13-.46,0-.17.13,0,.16.23v-.17a10.5,10.5,0,0,1,.42,1c0-.53-.26-.58-.11-1.16s.22.06.3.12c0,.4-.22.75-.09,1a3.11,3.11,0,0,0,.18-.9A4.31,4.31,0,0,1,97,21.87a.68.68,0,0,0,0-.4l0,.11c-.06-.24.12-1-.12-.64.15-1.34.33-.34.52-.49,0-.31-.09-.63-.15-.95.38-.86.72-.77,1-.44s.4.89.63,1c-.26.35-.26-.05-.53,1,.12.55.14.33.32.61v-.06c.31-.45.12.55.54-.28.15-.56-.38.44,0-.65a2.1,2.1,0,0,1,.3.22c.16-.69-.3-.23-.37-.42-.12,0,.13.22-.18.91-.28-.13-.1-.86,0-2,.12-.81.41-.73.49-.71-.12,1.23-.06,1.84.48,1.49l.56-.72c-.17.81-.93,2.18-.61,2.14l.22-.6c.17-.19.25-.24.28-.22.11-.49.22-1.05.31-1.55.8-1.13.24.88.31,1.23a4.61,4.61,0,0,1,.16-.57c.58-.06,0,1.57.13,1.87.46-.4,0-.45.6-1.13-.06.36.55-.11.09.55.66-1,.37.2.78-.87.87,0,.71,1.38.58,2.26a4.47,4.47,0,0,1,.66-.58c-.15-.16-.12-.62.35-1.28.55-.29-.31.81,0,.61s0-.36.46-.77c.64-.29,0,.44,0,.62l-.27.13c-.31.86-1.39,1.5-.87,1.61.65-.31.45-.35,1.14-.9-.2.28.76,0,.08.65l-.22-.18c-.08.31,0,.45-.15.73a1.53,1.53,0,0,0,.34-.32c-.15.29,0,.4-.42.78l.81-.48c-.4.15-.61,0-.21-.35.68-.45.43.08.55.14-.09-.58,1.07-1.45.29-1.5l-.18.24c-.73.19,0-.77-.24-1a1.32,1.32,0,0,0,.56-.4c-.94,0-1-.83-1.84-1l.42-.85-.46.53c-.48,0,.56-.81.33-.92.08.06,0,.14-.11.29.15-.9-.58.36-.64,0-.35.66.19.49-.5,1.21.19-.89-.6-.86.27-2.32a1.34,1.34,0,0,1-1.19-.64,5.79,5.79,0,0,0-.92-1.05c-.2.24,0,.24-.15.44.08-1-1.12.33-.83-.5a3.94,3.94,0,0,0-.55,1,1.2,1.2,0,0,0-.36-.87l.09.27,0,.11-.13-.39,0-.05c-.49-.39-1.13-.27-1.51-1.29.21.62-.22,1-.13,1.4,0-1.41-.7-1.5-1.2-1.4a2.75,2.75,0,0,0,0,.75l-.25-.58,0,.35c-.49.24-1-1.31-1.37-.64.21.16.21.45.24.92a1.53,1.53,0,0,1-1.09-.43,2.18,2.18,0,0,1,0,.29c-.09.13-.24-.2-.37-.36l.05.69c-.23-.3-.46.07-.75-.45,0,.78-.67-.62-.91-.26-.13-.15.35.76.05.76-.28-1.49-.37,0-.67-1.58l-.16.64-.2-.79c.06,1.54-.48-.61-.72-.07a1.31,1.31,0,0,1,.11.34c-.14-.14-.4-.19-.3-.64-.18.05-.86-.19-.4.59-.12-.45.21-.12.35,0,.14.69-.18.48-.07,1.23l-.14-.29.07.43c-.5-.68-.67-.05-1.15-1,0,.22,0,.39-.09.37l-.23-.84-.34.11.5,1.18c-.29.34-.93-1-1.3-1.08.35,1.41-.75-.35-.6,1l.35.3c-.56-.09-.36.76-1,.44a3.68,3.68,0,0,0,.5-1.63c-.37.76-1.25-.45-1.47.53.15.31.35.48.35.86-.35-.67-.46.19-.69-.66,0,.34.21,1.11.16,1.26l-.89-.81.08.16c-.1,2.21-2.11-.62-2.63.55l.21.42-.49-.54c.35.35.17.57.32.95l-.94-.69C81,16.49,81.39,17.33,81.44,17.1Zm7.46-2.34.16,0s0-.06.1,0l-.1,0C89,14.92,89.06,15.28,88.9,14.76Zm14,3-.17-.22c.08,0,.1.31.24-.07C103,17.49,103,17.53,102.88,17.71ZM90.27,20.36l.2.42-.09-.58Zm-1.52.51.27.26L89,21l-.27-.27ZM85.21,17l.07.1-.07-.1c-.29-.33,0,.66-.45-.24C84.58,15.91,85,16.71,85.21,17Zm3.69-1c-.16-.56-.41-.59-.59-1-.06.15.21.6.34.93,0,.07-.08,0-.17-.06C88.85,17,88.53,15.44,88.9,16Zm4.37-.71,0,.07.24.43Zm1,.51c.15.74.41.6.6.76,0-.65-.21-1.38-.43-1.31C94.09,14.69,94.35,16.23,94.22,15.78ZM87.06,17.6c.2.17.79,1.38.79.63L87.57,18l0-.08-.21-.47C87.88,18.72,87.19,17.62,87.06,17.6Zm9.06-1.49a3.44,3.44,0,0,1,.4,1.56c.08-1-.16-1.44-.25-1.44S96.18,16.23,96.12,16.11Zm0,1.11c-.1.12-.08.76-.24.29,0-.52,0-1.79-.28-1.38A8.07,8.07,0,0,0,96.05,18Zm-.29-2-.12.13c-.15.41-.16,1.53-.35.41.11-.14.23-.27.35-.41S95.79,15.17,95.84,15.19Zm2.46.28-.06-.36c.11.06.1.21.06.36l0,.3C98,16.08,98.23,15.76,98.3,15.47Zm-2.23-.05.33.11C96.29,15.65,96.08,15.88,96.07,15.42Zm2,.9c-.15,0-.53.12-.47.06C97.71,15.87,98,16,98.08,16.32ZM104.23,20l-.54.45.1.17ZM102,19.5l-.07-.1-.22.27ZM100,18.83a3.75,3.75,0,0,0,.17-.47,1,1,0,0,1,0-.31s0,.14,0,.31.16.14.3,0c.09-.33,0-.33,0-.56.52-.68-.06,1.78.78-.45a2.69,2.69,0,0,1-.3,1.31c-.14-.21-.63-.15-.93.21,0,.12-.11.2-.15.21A1.13,1.13,0,0,1,100,18.83Zm-2.63-.14a.27.27,0,0,1-.09-.22,2,2,0,0,1,0-.77c.12.3,0,.56,0,.77S97.28,18.67,97.32,18.69Zm-.13,1q-.09-.5-.21-1l0,.52-.17-.47C96.83,19.43,97,20.18,97.19,19.73Zm-.46-.49v-.57l0,.58h0v.13L96.38,19Zm-4-1c.17,2,.56,1.33.75,2.26-.07-.66-.06-1.69-.44-1.61.24-.7.37,1.23.36-.42-.15.14-.41-.34-.45-.39l.18-.09C92.81,16.84,92.88,18.66,92.69,18.28Zm-2,.82L90.47,19l.26,0Zm-5.65,2.4c.19.42.23,1.31-.18.54C85,21.87,85.18,21.84,85.09,21.5Zm-2.47,1,.42.23c.39,1-.25.07-.29.29C82.49,22.53,82.73,22.8,82.62,22.46ZM81,23.24l-.16-.11.54.89Zm1.15,1.68c0,.08-.28,0-.43-.48Zm-1.92.17.51.78-.08.11ZM80,24.46a2.43,2.43,0,0,1,.3.46c.17.2.3.23.27-.05-.22-.41-.15-.11-.26-.19s0-.37.1-.26a9.32,9.32,0,0,0,.64,1.37c0,.52-.43-.29-.75-.87A2.82,2.82,0,0,1,80,24.46Zm.85-.62a1.14,1.14,0,0,0-.06-.3l.09.15c.1.28,0,.23,0,.15a2.44,2.44,0,0,1,0,.27,5.5,5.5,0,0,0,.76,1.1c-.15-.11-.47-.6-.42-.23.09.15.13.26.19.22l-.08.19a1.45,1.45,0,0,1-.45-1.28,2.49,2.49,0,0,1-.14-.39C80.7,23.63,80.79,23.75,80.86,23.84Zm-1.28.06a4.6,4.6,0,0,0-.31-.55l-.16-.11A.86.86,0,0,0,79.58,23.9Zm4.26-3.14c0,.19.42.76.47.55l.29.83c-.24-.54-.45-.36-.5-.4C83.73,21,84,21.29,83.84,20.76Zm6.51-1.59c-.15-.25-.3.47-.64-.58C89.93,19.8,90.24,19.45,90.35,19.17ZM90.08,18s.07,0,.09,0c.17.2.37,1.06.43.54-.1-.21-.1.1-.2-.12-.13-.53-.13-.43-.23-.42S90.1,17.94,90.08,18Zm-3.47,1.08-.4-.71-.16.13Zm-2.52-.56c.19.42,0,.52-.15.33.26.55.36.42.5.44s.07.06.11,0a.17.17,0,0,0-.11,0,3.69,3.69,0,0,1-.27-.62v-.18l-.22-.09Zm-3.71.95c.09.48,0,.33-.16.22S80.23,19.33,80.38,19.45ZM85,17.57c-.11.37.44.82.41,1.16l.09-.11c.05.68-.39-.59-.45-.37l0-.14c-.14-.58-.28-.32-.47-.75C84.6,17.1,85,17.43,85,17.57ZM80,19.18c0,.64-.44-.48-.61-.52C79.34,18.1,79.8,19.11,80,19.18Zm2.57-2.92,0-.11.31.24,0,.11Z"/><path class="cls-4" d="M82.42,24.82c0,.09,0,.09-.09.06S82.38,24.81,82.42,24.82Z"/><path class="cls-4" d="M91.68,21.91a.67.67,0,0,1,0-.29A1.29,1.29,0,0,1,91.68,21.91Z"/><path class="cls-4" d="M92.13,22.2s0,0,0,0l0,.05Z"/><path class="cls-4" d="M103.54,23.85c-.57.5-.15,0-.19,0S103.84,23.57,103.54,23.85Z"/><path class="cls-4" d="M104.23,22.67a.82.82,0,0,0-.25.41S104,23,104.23,22.67Z"/><path class="cls-4" d="M104.23,23.24c-.19,0-.26-.06-.25-.16S104.31,23,104.23,23.24Z"/><path class="cls-4" d="M103.06,21.67c-.27.38,0,.33,0,.33-.56.05-.57.65-.81.9C102.25,22.65,102.66,22.25,103.06,21.67Z"/><path class="cls-4" d="M102.87,21.15a.12.12,0,0,0,.13,0C102.9,21.22,102.87,21.2,102.87,21.15Z"/><path class="cls-4" d="M102.46,21.4c0-.16.28-.59.49-.94.38-.17-.08.52-.08.69C102.79,21.1,102.76,21,102.46,21.4Z"/><path class="cls-4" d="M98.38,21.9c0,.06.05.07,0,.35l-.14,0A.38.38,0,0,1,98.38,21.9Z"/><path class="cls-4" d="M98.16,20.38c-.13-.09-.23.66-.26.48l.23-1Z"/><polygon class="cls-4" points="99.47 15.54 99.52 15.66 99.45 15.6 99.47 15.54"/><path class="cls-4" d="M97.29,21.2l-.1,1.1A4.17,4.17,0,0,1,97.29,21.2Z"/><polygon class="cls-4" points="96.69 21.86 96.72 22.2 96.52 21.86 96.69 21.86"/><polygon class="cls-4" points="96.11 21.28 96.08 21.51 95.91 21.23 96.11 21.28"/><path class="cls-4" d="M88.25,21.83c-.34-.86.11-.62.13-.88C88.69,22.08,88,20.68,88.25,21.83Z"/><path class="cls-4" d="M82.51,24.31l.4,0C82.83,24.79,82.84,24.39,82.51,24.31Z"/><path class="cls-4" d="M98,38l-.07.08S97.89,38,98,38Z"/><path class="cls-4" d="M97.79,38.76a.53.53,0,0,1,.15-.69C98.1,38.17,98.83,38.38,97.79,38.76Z"/><path class="cls-4" d="M99.7,37.35l-.24.33C99.13,37.65,99.64,37.5,99.7,37.35Z"/><polygon class="cls-4" points="98.75 37.78 98.36 37.9 98.69 37.66 98.75 37.78"/><path class="cls-4" d="M89.42,32a6,6,0,0,1-.35.51Z"/><path class="cls-4" d="M90.13,30.26a.44.44,0,0,0,0-.15S90.15,30.15,90.13,30.26Z"/><path class="cls-4" d="M89.84,32.12h-.1C89.79,32.09,89.83,32.08,89.84,32.12Z"/><path class="cls-4" d="M94.39,34.52l-.49.6C93.57,35.19,94.1,34.79,94.39,34.52Z"/><path class="cls-4" d="M91.19,23.92l-.19.27C91.05,24.05,91.11,23.92,91.19,23.92Z"/><path class="cls-4" d="M93.13,25.7c-.1.16-.19.27-.25.35l0-.09Z"/><path class="cls-4" d="M90.49,31.78l0,0-.08.2C90.37,32,90.39,31.92,90.49,31.78Z"/><path class="cls-4" d="M90.65,23.13c0-.18.12-.4.23-.69A1.45,1.45,0,0,1,90.65,23.13Z"/><path class="cls-4" d="M90.1,30.1h0v0Z"/><path class="cls-4" d="M93.62,26.49a.72.72,0,0,1,0-.21C93.7,26.25,93.68,26.35,93.62,26.49Z"/><path class="cls-4" d="M94.39,34.52l.16-.2S94.49,34.42,94.39,34.52Z"/><path class="cls-4" d="M97.13,37.71c0-.06.18-.16.4-.26A3.11,3.11,0,0,1,97.13,37.71Z"/><path class="cls-4" d="M77.32,26.76h0S77.31,26.74,77.32,26.76Z"/><path class="cls-4" d="M79.66,27.89a2.54,2.54,0,0,1,0,.26C79.62,28.23,79.63,28.08,79.66,27.89Z"/><path class="cls-4" d="M83.7,20.6c-.31.42-.3-.57-.47-.66l0,.41L83.1,20l-.12.56c-.24-.33-.72.19-.65-.74l-.15.92L82,19.93l.06.65c-.37.11-.78-.66-.86-.68l0,.35c-.08.17-.09-.06-.13-.18l0,.51c-.5-.21-.8.93-1.3.3-.17.1.06.18,0,.47s-.28,0-.3-.25c0,.81.22.59,0,1.21-.08-.4,0,.76-.2.58l0-1c-.14.17-.11.8-.29.69-.18-.47.39-1.15,0-1.33-.2.05-.6,2.36-.88,1.78-.33.51,0,1.62-.34,1.32L78,25c-.08.28-.08.81-.23.57a2.74,2.74,0,0,0-.17-1c.3.82-.38,1.16-.12,2.21l-.11,0a.8.8,0,0,1,0,.22l-.16.06a1.34,1.34,0,0,1,.15,1.1l-.22.18c0,.57-.07.81-.08,1.27.18.39.34.78.5,1.16a5.65,5.65,0,0,1,0-.92c.17-.29.07.63.25.17l0-.46c0,.17,0,.23,0,.28-.07.3-.06-.05,0-.34.09-.58.22-.18.22.23.2-.06.14-1,.19-1.22,0,1,.34,0,.41.47v-.64c.24-.75.31-.11.37.13l0-.52c.19.12.54-1.6.45.26l0-.35c.11-.14.31-.51.31.05a1.68,1.68,0,0,1,.14-.54c-.06.71.11.19.26.09,0-.2.12-1.11.06-1.34.37-.91,0,1,.2,1.06.19-.46,0-.53,0-.87.18.52,1-2,.79-.15l-.23.55c0,.42.09.43.11.25,0,0,0-.12,0-.29.52-.86.23,1.44.61,1.14.06-.34,0-.46.1-.75.23-.32-.26,1.78.13,1.13l0-.4c.14-.22.06.36,0,.47.39-1.54.46.2,1.16-1.73-.1.87,0,1.61.26,1.18.42-.86.17-1,.47-1.85.13,0-.06.87.21.63-.27.83-.86,1.6-.7,2.16l.19-.43c0,.05-.15.2-.16.08.06-.52.23-.54.32-.76l.26.36c-.27.89-.39.61-.49.84.31-.11,1.07-1.28,1.11-.61l.1-.33c0,.85.77-1.53.51,0,.22-.18.3-.94.53-.93.06,0-.1.33-.15.43.13.4.44-.78.35.11l.32-.93c0,.75-.37,2.45,0,2.16.29-.7.12-.69.29-1.25-.24,1.4.7.48.67,1.29-.37.54-.54,1.42-.94,1.81.38-.9,0-.37,0-.5-.79,2,1.06-.62.27,1.05l.39-.65a2.4,2.4,0,0,1-.36.85l.5-.29c.18-.55.57-1.83.13-1.14.28-.76.37-.41.72-1.27-.38,1.23.37-.4.46-.05a9.42,9.42,0,0,0-.77,1.88c.17-.15.07.37-.07.73,0,.15.75-.46.73,0a5.81,5.81,0,0,1,.61-1.38c-.11.39,0,.44.44-.24.43-1.47-1.08,1.53-.87.53a2.53,2.53,0,0,0,.4-1.42,11.54,11.54,0,0,0,.77-1.18c-.78,1.82.43.49.19,1.48-.2.55-.93,1.54-.82,1.86l-.51.39c.5-.33-.26.52-.21.8l.27-.57c.18-.05.15.07,0,.49l.45-.87c.12-.07.3-.11,0,.38l.35-.49c-.08.14-.11.25,0,.27s0-.09.12-.33c.12.37.65-.84.76-.65a1.15,1.15,0,0,1,.44-.46A11.66,11.66,0,0,0,89.42,32v0l-.18.63a1.59,1.59,0,0,1,.49-.52h0c.21-.15.94-1.4.87-.9l-.18.44a2,2,0,0,1,.26-.32l-.15.41c1-1-.23.88.39.47-.13.05-.14-.09.19-.43.15-.1.1.07,0,.27l.1-.14-.29,1c.32-.41.16-.6.63-1s.12.16.15.25c-.29.3-.63.47-.67.73.15-.14.54-.36.68-.62a4.65,4.65,0,0,1-.59,1.36.84.84,0,0,0,.25-.32l-.09.07c.09-.22.71-.76.29-.58.91-1,.44-.09.68-.11l.45-.84c1.59-1,.68.86.91,1.19-.39.18-.16-.16-.92.56-.21.53-.06.35-.06.68l0,0c.49-.25-.18.55.59,0,.41-.41-.53.21.35-.55l.15.31c.47-.51-.15-.31-.11-.51-.1,0,0,.25-.6.7-.17-.25.35-.79,1.06-1.65.53-.62.71-.43.75-.39-.75,1-1,1.54-.37,1.44l.81-.41c-.53.63-1.82,1.54-1.5,1.63l.45-.44c.24-.1.33-.12.34-.09.31-.39.66-.83,1-1.23,1.17-.68-.23.82-.32,1.16.13-.11.13-.21.39-.43.48.13-.59,1.34-.65,1.68.55-.22.21-.41,1-.84-.2.31.53.05-.13.51.94-.67.25.26,1-.56.72.24.15,1.32-.24,2.09a4.69,4.69,0,0,1,.78-.39c-.09-.16.08-.57.74-1.05.59-.15-.56.65-.24.52s.16-.3.68-.57-.12.37-.17.53l-.29.07c-.55.69-1.74,1.06-1.29,1.26.7-.18.53-.24,1.32-.61-.27.22.73.12-.08.57l-.17-.18c-.15.24-.09.38-.33.6a1.51,1.51,0,0,0,.4-.23c-.22.23-.1.36-.62.63l.89-.3c-.41.07-.56-.11-.09-.34.76-.29.38.13.47.2.08-.52,1.43-1.11.69-1.25l-.23.18c-.76.06.19-.66.06-.86a1.69,1.69,0,0,0,.64-.26A.86.86,0,0,1,99,34.7a1.26,1.26,0,0,0-.6-.61l.7-.63-.61.35c-.41-.08.81-.56.66-.69,0,.06-.07.11-.21.21.5-.71-.65.19-.56-.09-.58.48,0,.45-.93.9.52-.7-.14-.87,1.22-1.86-.92-.12-.52-1.4-.79-1.91-.28.13-.15.18-.35.31.6-.8-1-.1-.33-.67a5.41,5.41,0,0,0-.94.61,1.28,1.28,0,0,0,.24-.85l-.09.26-.09.07.12-.36,0,0c-.12-.48-.61-.67-.26-1.63-.22.57-.76.72-.92,1,.82-1.14.47-1.51.07-1.65a4.58,4.58,0,0,0-.48.58l.2-.57-.2.28c-.46-.05.17-1.54-.45-1.2,0,.23-.16.46-.43.83a1.09,1.09,0,0,1-.42-.9,1.65,1.65,0,0,1-.15.25c-.14.05,0-.29,0-.48l-.42.56c0-.36-.33-.2-.17-.77-.49.58,0-.88-.4-.73,0-.19-.27.78-.46.61.79-1.29-.25-.2.6-1.59l-.5.39L92.5,24c-1,1.2.1-.74-.41-.48a1.32,1.32,0,0,1-.14.31c0-.19-.13-.4.22-.67-.14-.08-.43-.65-.63.21.21-.42.21,0,.2.22-.35.6-.42.25-.84.89a2.62,2.62,0,0,0,.1-.3l-.23.36c.12-.8-.4-.44-.12-1.42-.11.19-.23.31-.3.22l.4-.78-.29-.12L90,23.65c-.4.08,0-1.34-.14-1.64-.68,1.29-.28-.72-1,.36l0,.45c-.31-.43-.72.35-.91-.28a3.65,3.65,0,0,0,1.37-.91c-.74.35-.55-1.15-1.33-.54-.1.33-.07.58-.31.87.19-.73-.43-.13-.06-.92-.24.22-.55,1-.68,1.07l-.11-1.19,0,.17c-.74.81-1,.36-1.23-.21s-.47-1.29-1-1l-.1.46,0-.72c0,.48-.22.54-.33.93-.09-.38-.19-.74-.29-1.11C83.71,19.84,83.53,20.75,83.7,20.6Zm6.59,2.85.08.12s.08,0,.06.07l-.06-.07C90.26,23.64,90.05,23.94,90.29,23.45ZM98,32.5l0-.23c.07,0-.08.28.22,0C98.14,32.33,98.19,32.39,98,32.5Zm-10.43-4-.14.45.31-.5ZM86.31,28v.37l0-.11v-.36Zm.11-5.14a.57.57,0,0,1,0,.12.62.62,0,0,1,0-.12c0-.44-.38.53-.15-.47C86.68,21.61,86.47,22.49,86.42,22.85Zm3.08,1.52c.26-.52.12-.71.24-1.1-.13.07-.25.59-.38.91-.06,0-.06,0-.07-.16C88.79,25.13,89.62,23.72,89.5,24.37Zm3.2,2.09-.07,0L92.5,27Zm.26.92c-.37.66-.12.68-.09.9.42-.49.75-1.17.55-1.23C93.58,26.47,92.76,27.8,93,27.38Zm-5.68-2.93c0,.26-.36,1.54.12,1l0-.37.06-.05.17-.49C87.11,25.81,87.36,24.54,87.28,24.45ZM94,28.64a4.26,4.26,0,0,1-.71,1.43c.67-.74.79-1.22.73-1.26S93.94,28.76,94,28.64Zm-.68.87c-.14,0-.53.55-.35.1.36-.38,1.13-1.4.69-1.22a9.05,9.05,0,0,0-.87,1.67Zm1.08-1.73-.16,0c-.35.25-1.07,1.11-.49.13l.49-.13C94.29,27.76,94.35,27.74,94.37,27.78Zm1.43,1.37.17-.31c0,.09,0,.2-.17.31l-.14.26C95.26,29.52,95.58,29.35,95.8,29.15Zm-1.43-1.08.15.26C94.37,28.36,94.08,28.44,94.37,28.07Zm.77,1.66c-.12,0-.42-.14-.35-.16C95.17,29.21,95.29,29.48,95.14,29.73Zm3.06,4.95-.65.27,0,.17Zm-1.72-.91,0-.1-.31.17Zm-1.39-1.23a3.9,3.9,0,0,0,.38-.33,1,1,0,0,1,.19-.24s-.07.12-.19.24.06.17.25.07.13-.28.28-.46c.75-.4-.94,1.44.84-.13a3.25,3.25,0,0,1-.89,1c0-.22-.43-.32-.86-.14-.1.07-.19.13-.22.12A1.19,1.19,0,0,1,95.09,32.54ZM93.2,31.27a.29.29,0,0,1,.07-.22,2.19,2.19,0,0,1,.47-.62c-.1.3-.35.44-.47.62A.44.44,0,0,0,93.2,31.27Zm-.71.77.45-.91-.28.45.16-.47C92.42,31.6,92.05,32.27,92.49,32Zm0-.64.35-.44-.34.47v0l-.08.1,0-.45Zm-2.07-3c-1.16,1.58-.5,1.32-1,2.14.37-.54,1-1.32.75-1.47.61-.4-.55,1.14.5-.12-.18,0,0-.49,0-.55l.18,0C91.41,27.37,90.27,28.8,90.39,28.41Zm-1.74-.55-.11-.24.17.14Zm-5-1.59c-.12.45-.6,1.18-.42.33C83.38,26.51,83.51,26.6,83.64,26.27ZM81.5,25.6l.15.43c-.26,1-.19-.08-.34.07C81.37,25.59,81.39,25.94,81.5,25.6ZM80,25.33l0-.18-.07,1Zm-.06,2c0,.05-.16-.19,0-.64Zm-1.35-.89v.93l-.1.05Zm.17-.64c0,.11,0,.32,0,.56s.09.34.2.08c0-.46,0-.17-.08-.29S79,25.84,79,26a12,12,0,0,0-.2,1.5c-.26.43-.15-.46-.1-1.12A2.14,2.14,0,0,1,78.73,25.83Zm.87-.07a1.09,1.09,0,0,0,.11-.28v.18c-.07.29-.09.22-.1.1a1.28,1.28,0,0,1-.14.23,5.91,5.91,0,0,0,0,1.33c0-.17,0-.75-.17-.41,0,.17,0,.29,0,.29l-.14.1a1.68,1.68,0,0,1,.3-1.31,2.13,2.13,0,0,1,.1-.4C79.59,25.51,79.6,25.65,79.6,25.76Zm-.92-.62a4.06,4.06,0,0,0,0-.64l-.06-.17A1,1,0,0,0,78.68,25.14ZM83.26,25c-.09.15-.16.85,0,.71l-.29.83c.15-.56-.09-.55-.1-.62C83,25.08,83,25.44,83.26,25Zm5.1,2.72c.07-.28-.48.17,0-.83C87.7,27.89,88.11,27.82,88.36,27.67ZM89,26.6s0,.07,0,.08c0,.25-.45,1-.08.67.07-.22-.12,0,0-.21.27-.49.2-.41.13-.46S89,26.59,89,26.6Zm-2.88-1.31.18-.79h-.19Zm-1.33-2c-.12.45-.32.41-.29.17-.16.59,0,.55.07.65s0,.08,0,.09a.15.15,0,0,0,0-.09,3.73,3.73,0,0,1,.19-.65l.1-.15-.1-.2Zm-3.19-1.46c-.21.45-.19.28-.25.1S81.51,21.67,81.56,21.85Zm4.35,1.28c-.3.21-.21.9-.43,1.14l.12,0c-.38.55.1-.7-.07-.57l.11-.09c.26-.53,0-.42.14-.86C86,22.53,86,23,85.91,23.13Zm-4.48-1.69c-.31.55-.06-.65-.18-.77C81.51,20.16,81.3,21.25,81.43,21.44Zm3.61-.8,0-.11.08.38,0,.11Z"/><path class="cls-4" d="M80.16,27.43c-.06.07-.08.06-.1,0S80.13,27.4,80.16,27.43Z"/><path class="cls-4" d="M87.42,30.54a.93.93,0,0,1,.17-.23A1.5,1.5,0,0,1,87.42,30.54Z"/><path class="cls-4" d="M87.51,31h0l0,.05Z"/><path class="cls-4" d="M96.38,37.9c-.67.35-.13,0-.15-.07S96.74,37.7,96.38,37.9Z"/><path class="cls-4" d="M97.34,37a.82.82,0,0,0-.33.31S97,37.2,97.34,37Z"/><path class="cls-4" d="M97.21,37.47c-.17,0-.24-.09-.2-.18S97.36,37.27,97.21,37.47Z"/><path class="cls-4" d="M96.57,35.89c-.36.28-.08.29-.08.29-.52-.07-.74.47-1,.64C95.51,36.58,96,36.31,96.57,35.89Z"/><path class="cls-4" d="M96.56,35.4s0,.05.12,0C96.57,35.47,96.54,35.44,96.56,35.4Z"/><path class="cls-4" d="M96.11,35.53c0-.15.47-.45.78-.71.4-.07-.27.43-.33.58C96.51,35.34,96.52,35.24,96.11,35.53Z"/><path class="cls-4" d="M92.24,34.45c0,.06,0,.09-.21.29l-.11-.12A.39.39,0,0,1,92.24,34.45Z"/><path class="cls-4" d="M92.87,33.05c-.07-.13-.56.44-.48.27l.71-.68Z"/><polygon class="cls-4" points="96.56 29.67 96.53 29.77 96.51 29.71 96.56 29.67"/><path class="cls-4" d="M91.7,33.28l-.7.84A3.93,3.93,0,0,1,91.7,33.28Z"/><path class="cls-4" d="M90.85,33.47l-.18.3c0-.14,0-.27,0-.4Z"/><polygon class="cls-4" points="90.75 32.68 90.58 32.85 90.64 32.53 90.75 32.68"/><path class="cls-4" d="M85.41,28.41c.33-.87.45-.4.61-.58C85.52,28.88,86,27.37,85.41,28.41Z"/><path class="cls-4" d="M80.47,27.05a2.85,2.85,0,0,1,.23.26C80.43,27.62,80.64,27.29,80.47,27.05Z"/><path class="cls-4" d="M77.3,26.24s0-.08.08-.12S77.42,26.27,77.3,26.24Z"/><path class="cls-4" d="M77.55,24.75a1.92,1.92,0,0,1-.17,1.37C77.23,25.8,76.56,25,77.55,24.75Z"/><path class="cls-4" d="M75.69,26.51l.24-.47C76.23,26.25,75.75,26.27,75.69,26.51Z"/><polygon class="cls-4" points="76.6 26.23 76.97 26.2 76.64 26.49 76.6 26.23"/><path class="cls-4" d="M77.72,50.08a1.46,1.46,0,0,1,.55.1Z"/><path class="cls-4" d="M75.79,50.63a1.9,1.9,0,0,0-.16.18C75.63,50.74,75.68,50.7,75.79,50.63Z"/><path class="cls-4" d="M77.86,49.07v.21A.22.22,0,0,1,77.86,49.07Z"/><path class="cls-4" d="M78.76,36.91l.72-.41C79.73,36.88,79.12,36.85,78.76,36.91Z"/><path class="cls-4" d="M69.13,53.33l.26.15C69.24,53.47,69.11,53.44,69.13,53.33Z"/><path class="cls-4" d="M71,49.37a3.33,3.33,0,0,1,.37.14l-.09,0Z"/><path class="cls-4" d="M77.49,48.17l0,0,.22-.1C77.72,48.14,77.65,48.18,77.49,48.17Z"/><path class="cls-4" d="M68.2,54.45a4.36,4.36,0,0,1-.67-.1A.9.9,0,0,1,68.2,54.45Z"/><path class="cls-4" d="M75.63,50.84h0l0,0Z"/><path class="cls-4" d="M71.72,48.08l-.21.17C71.47,48.14,71.57,48.09,71.72,48.08Z"/><path class="cls-4" d="M78.76,36.91l-.24.13C78.54,37,78.63,36.94,78.76,36.91Z"/><path class="cls-4" d="M78.13,27.4c0,.15-.19.2-.4.25A1.15,1.15,0,0,1,78.13,27.4Z"/><path class="cls-4" d="M59.6,77l-.05,0A.05.05,0,0,1,59.6,77Z"/><path class="cls-4" d="M64.59,73.52a1.58,1.58,0,0,1,.23.11C64.84,73.72,64.72,73.64,64.59,73.52Z"/><path class="cls-4" d="M62.37,65c.17.55-.77.27-1,.46l.35.15-.42,0,.41.33c-.5.21-.45,1-1.21.62l.68.5-.83,0,.62.15a1.5,1.5,0,0,1-.74.63c-.3.14-.6.19-.64.23l.27.18c0,.18-.15.09-.3.09l.4.26c-.69.52-.11,1.45-1.14,1.8-.11.27.21,0,.4.19.15.37-.34.36-.53.26.55.49.7,0,.88.68-.41-.1.58.38.19.57L59,71.48c-.06.27.47.58.13.74-.58-.06-.34-1.11-.92-.81-.2.24.91,2.09.08,2.12-.13.75,1.16,1,.4,1.27l.78.15c.07.3.43.61,0,.69-.32-.22-.78-.45-1-.37,1,.08.14,1.29,1.27,1.57L59.6,77a.26.26,0,0,1,.14.15l-.25.29c.3,0,.78-.27,1,.45l-.32.49c.43.32.4.63.68,1L62.8,79c-.26-.2-.57-.2-.7-.51.17-.5.64.2.69-.4l-.41-.2c.13.1.21.1.17.2.06.3-.19.1-.36-.1-.23-.51.32-.5.66-.3.37-.41-.54-.8-.55-1,.79.49.66-.59,1.19-.49l-.55-.29c-.17-.77.45-.62.77-.63l-.4-.28c.46-.34-.48-1.65,1-.76l-.26-.18c0-.27,0-.75.54-.56-.14-.14-.29-.34-.27-.44.56.36.36-.15.51-.46-.28,0-.85-.57-1.15-.55-.3-.94,1,.31,1.28,0-.16-.48-.49-.14-.77-.31.78-.18-.65-2.27.89-1.48l.24.55c.44,0,.53-.07.38-.15,0,.1-.15,0-.28-.06-.19-1.13,1.72-.15,2-1-.29-.14-.44-.12-.65-.28,0-.47,1.53.73,1.34-.15l-.36-.13c-.06-.29.44-.09.52,0-1.15-.85.77-1-.54-2.37.8.22,1.78-.12,1.56-.56-.52-.75-1-.26-1.56-.8.15-.22.9.09.87-.41.67.41.94,1.57,1.72,1.13l-.3-.32c0,.1.08.28-.06.33-.51-.06-.38-.41-.54-.56l.63-.6c.76.39.33.72.48.88.2-.68-.46-2,.33-2.23l-.3-.11c1-.32-1.12-1.15.38-1,0-.39-.84-.32-.67-.79,0-.12.3.1.38.17.54-.39-.59-.61.35-.74l-.85-.31c.84-.28,2.55-.21,2.47-.9-.64-.27-.74.08-1.27,0a1.24,1.24,0,0,0,1.15-.89c.17-.43.24-.89.69-1.09.45.44,1.38.24,1.64.87-.86-.25-.41.19-.6.38,1.94.42-.2-1.94,1.4-1.39L75,57.33c.14-.06.73-.12.85.15l-.09-.93c-.59.07-1.93.15-1.32.61-.77-.07-.32-.48-1.17-.63,1.27,0-.32-.48.12-.89.83.61,1.47,0,1.91.21-.1-.24.46-.45.84-.48.2-.28-.3-1.26.2-1.62a2.24,2.24,0,0,1-1.45,0c.43-.11.51-.37-.17-.66-1.57.36,1.5.84.41,1.3a1.66,1.66,0,0,0-1.5.32,4.5,4.5,0,0,0-1.13-.63c1.84.17.6-1.14,1.65-1.45.58-.09,1.57.48,2-.06l.32.7c-.25-.73.55,0,.91-.38h-.62c0-.33.13-.4.59-.43l-.93,0c0-.19-.06-.51.44-.35a2.66,2.66,0,0,0-.5-.23.23.23,0,0,0,.29-.22c-.13.08-.1.17-.35.09.41-.63-.87-.46-.66-.86a.58.58,0,0,1-.48-.38c1.34.43,1.77-.37,2.59-.38h0l.72-.43c-.15.09-.47-.15-.57-.36v0c-.15-.25-1.53-.2-1-.65l.49-.18c-.06,0-.25-.07-.35-.12l.45-.21c-1.15-.8.94-.7.45-1.42.07.19-.09.41-.47.2-.13-.14.06-.27.28-.3h-.16l1.1-.85c-.48,0-.66.56-1.12.17s.15-.45.24-.63c.36.11.59.54.87.23-.16-.09-.46-.51-.75-.41a5.61,5.61,0,0,1,1.5-1c-.14-.14-.32,0-.38,0l.1.05c-.25.17-.94-.17-.65.35-1.19-.23-.21-.69-.3-1.11l-.93.43c-1.45-1.33.59-2.31.79-3.32.33.36-.08.54.87.66.57-.55.33-.5.61-1.11l-.06,0c-.43-.4.56-.72-.26-1-.54.07.42.54-.63.39l.19-.77c-.65.16-.19.77-.37,1.05,0,.23.2-.41.87-.21-.13.74-.83.81-1.86,1-.76.09-.7-.44-.69-.57,1.15-.29,1.75-.91,1.35-1.7l-.75-.49c.77-.27,2.19,0,2.08-.64l-.59.14c-.2-.17-.28-.27-.27-.34-.44.24-1,.48-1.47.68-1.15-.5.73-1,1-1.5-.16,0-.22.2-.54.22-.23-.82,1.29-1.55,1.53-2.19-.51-.29-.39.51-1.18.33.33-.31-.33-.72.41-.77-1,.09-.06-.75-1.06-.17-.46-1.18.59-2.43,1.13-3.67a2,2,0,0,1-.8,0,1.23,1.23,0,0,1-1,1.21c-.53-.25.74-.62.41-.69-.25.14-.25.4-.78.41-.58-.33.24-.52.33-.76l.27.12c.68-.76,1.82-.48,1.49-1.27-.66-.26-.53,0-1.32.07.3-.21-.59-.74.24-1l.09.48c.21-.35.19-.67.45-.93a.78.78,0,0,0-.41.15c.25-.29.12-.63.64-.82H77.1c.39.12.53.59.06.71-.74,0-.35-.49-.43-.69-.11.94-1.47,1-.87,1.77l.26-.15c.66.45-.37,1-.32,1.41a.8.8,0,0,0-.63-.07c.74.89.15,1.81.56,2.86l-.84.29.63,0c.28.52-.9.08-.84.4,0-.12.11-.09.27-.11-.75.55.57.36.35.68.7-.12.29-.63,1.18-.44-.76.57-.44,1.53-2,1.5a2.12,2.12,0,0,1-.1,1.74,13.6,13.6,0,0,0-.73,1.54c.25.17.22,0,.42,0-.93.24.45,1.3-.33,1.19a3.13,3.13,0,0,0,1,.46,1.62,1.62,0,0,0-.81.69l.25-.18.1.05-.36.25,0,0c-.37.69-.34,1.57-1.29,2.05.57-.27.91.3,1.25.18a1.44,1.44,0,0,0-1.54,1.53,1.93,1.93,0,0,0,.67.13l-.59.25.32,0c.06.73-1.47,1.1-1,1.69.22-.23.47-.17.88-.09a2.58,2.58,0,0,1-.84,1.37.64.64,0,0,1,.27,0c.06.18-.29.26-.48.37l.6.2c-.37.2-.17.66-.75.84.62.35-.85.62-.72,1.08-.2.1.8-.08.62.32-1.33-.39-.23.52-1.64.06l.38.53-.72-.17c1.2.77-.75.24-.49.82.15,0,.22,0,.31.07-.19.09-.4.38-.66,0-.08.24-.69.91.17.84-.4-.13,0-.33.24-.42.59.25.23.52.84.86a1.4,1.4,0,0,0-.3,0l.34.19c-.84.18-.56.81-1.53.78.18.09.28.23.18.36l-.74-.31-.18.46,1.16.25c0,.6-1.36.42-1.71.75,1.17.67-.84.56,0,1.41l.48-.15c-.55.56.11,1-.61,1.45a3.7,3.7,0,0,0-.48-1.86c.11,1-1.33,1-1,2,.3.1.57,0,.77.34-.67-.18-.32.68-1,.19.11.33.74.73.76.92l-1.27.21.15.06c.45,1.06-.16,1.48-.86,1.8s-1.57.47-1.63,1.25l.37.23L62,63.75c.49,0,.37.4.66.63l-1.24.18C61.68,64.79,62.38,65.26,62.37,65Zm6.09-10.11.14-.17c0-.06,0-.1.09-.11l-.09.11C68.66,54.84,68.93,55.05,68.46,54.87Zm6.66-19.23L75,36c0-.08.23-.31-.15-.24C74.91,35.7,74.91,35.57,75.12,35.64Zm-2,21.56h.45l-.43-.33ZM71.93,60l.42-.16-.08-.07-.43.16Zm-5.54,1.07h0c-.45,0,.32.58-.57.27C65.26,60.73,66,61,66.39,61.06Zm2.86-5.3c-.48-.21-.71.08-1.09,0,0,.19.56.19.86.27,0,.09,0,.12-.18.17C69.88,56.62,68.61,55.81,69.25,55.76Zm2.53-6.28,0,.09.48-.15Zm.9-1.13c.71,0,.71-.39.94-.63-.54-.23-1.28-.13-1.31.2C71.7,48.15,73.13,48.32,72.68,48.35Zm-4.15,11c.28-.09,1.49.18,1.1-.48l-.42.15V59l-.46-.14C69.91,59.31,68.66,59.25,68.53,59.39Zm5.23-13.74c.47-.18,1.1-.57,1.55-.42-.87-.22-1.37.09-1.4.22S73.89,45.58,73.76,45.65Zm1,.16c.06.18.64.26.17.45-.45-.16-1.6-.34-1.33.16.89-.1,1.3,0,1.8-.35Zm-1.91.07.08.2c.31.29,1.29.59.23.6l-.23-.6C72.85,46,72.81,46,72.85,45.88Zm.82-3.39-.34.11c.06-.16.2-.15.34-.11l.28-.08C74.2,42.84,73.93,42.59,73.67,42.49Zm-.55,3.11.21-.45C73.4,45.33,73.54,45.68,73.12,45.6Zm1.31-2.84c0,.22,0,.78,0,.69A.35.35,0,0,1,74.43,42.76Zm1.76-10.65.64.17,0-.32Zm.74,3.32-.06.18.31.11Zm-.09,3.74a1.33,1.33,0,0,0-.45,0,.59.59,0,0,1-.29.08c0-.05.13-.08.29-.08s.11-.34-.07-.45-.29.23-.51.28c-.7-.4,1.63-.82-.55-.89.28-.09.9-.48,1.26-.28a1.36,1.36,0,0,0,.32,1.38c.12,0,.2.07.21.14A.7.7,0,0,1,76.84,39.17Zm-.34,4.71a.33.33,0,0,1-.22.17,1,1,0,0,1-.72,0c.31-.21.52,0,.72,0A.45.45,0,0,0,76.5,43.88Zm.94.16c-.33.16-.66.31-1,.45l.51-.11-.5.34C77,44.79,77.8,44.51,77.44,44Zm-.62.92-.53,0,.55,0,0,.05h.12l-.47.65Zm-3,6.87c1.59.84,1.43-.19,2.28-.06-.56-.23-1.34-.77-1.56-.09-.36-.77,1.22,0-.09-.82,0,.32-.53.51-.6.53a3.43,3.43,0,0,0,.06-.34C72.77,50.89,74.22,51.72,73.79,51.83Zm-1,3.65-.31.34.22-.4ZM68,65.65c.37.2.66,1.12-.08.79C68,66.13,68.21,65.89,68,65.65ZM65,69.5l.6-.17c.68.67-.33.33-.35.62C64.84,69.72,65.2,69.77,65,69.5ZM62.78,72h-.23l.81.53Zm1.73.85c0,.1-.42.23-.65-.14Zm-2.91,2,.72.49-.14.19Zm-.23-.58a1.2,1.2,0,0,1,.43.3c.24.09.43,0,.4-.31-.31-.28-.22,0-.37,0,0-.1-.07-.4.15-.4.38.67.48.57.9,1-.09.67-.64,0-1.08-.36A1.09,1.09,0,0,1,61.37,74.28Zm1.26-1.48a.62.62,0,0,0-.09-.29l.14.09c.15.24.06.24,0,.2a1.82,1.82,0,0,1,0,.33c.33.42.84.43,1.12.58-.23,0-.7-.26-.63.13.13.09.19.19.28.08l-.13.31c-.77-.29-.69-.69-.64-1.1a1,1,0,0,1-.2-.33C62.4,72.71,62.52,72.77,62.63,72.8ZM60.76,74c-.13-.1-.23-.3-.44-.4H60.1A.52.52,0,0,0,60.76,74Zm5.47-7.67c.07.18.73.34.73,0l.58.56c-.44-.3-.66.14-.73.15C66.16,66.72,66.52,66.74,66.23,66.31Zm6.29-10.18c-.3,0,0,.83-.94.51C72.52,57.28,72.59,56.51,72.52,56.13Zm-1-.49a.5.5,0,0,0,.1-.13c.27-.08,1,.24.72-.23-.23,0,0,.22-.26.22-.45-.21-.39-.13-.46,0S71.51,55.57,71.52,55.64ZM68.8,61.29l-.75-.16-.12.32Zm-3,2.45c.38.2.17.52,0,.47.47.29.56,0,.73-.1a.14.14,0,0,0,.13-.08.57.57,0,0,0-.13.08c-.15,0-.36-.2-.53-.31l-.08-.17-.28.15Zm-4.19,4.59c.19.46,0,.38-.16.39A.23.23,0,0,1,61.63,68.33Zm4.75-6.47c0,.47.81.27.92.63l0-.21c.34.59-.66-.12-.63.17l0-.19c-.39-.38-.43,0-.8-.18C65.8,61.82,66.36,61.68,66.38,61.86Zm-5.24,6.51c.18.65-.62-.15-.84-.06C60.14,67.79,60.85,68.48,61.14,68.37Zm2.21-5.29L63.27,63l.43-.06.07.07Z"/><path class="cls-4" d="M65,72.45c0,.12-.08.16-.15.17A.31.31,0,0,1,65,72.45Z"/><path class="cls-4" d="M75.51,56a.39.39,0,0,1-.21-.18A.44.44,0,0,1,75.51,56Z"/><path class="cls-4" d="M76.12,55.4l0,0h0Z"/><path class="cls-4" d="M78.84,27.57c.67-.23.12.16.13.3C79,27.73,78.48,27.72,78.84,27.57Z"/><path class="cls-4" d="M77.77,28.73a.64.64,0,0,0,.38-.36C78.17,28.46,78.11,28.56,77.77,28.73Z"/><path class="cls-4" d="M78,27.84a.57.57,0,0,1,.13.53C78.11,28.24,77.85,28.14,78,27.84Z"/><path class="cls-4" d="M78,31.58a.31.31,0,0,0,.2-.49c.38.71.8-.14,1.11-.21C79.2,31.33,78.67,31.34,78,31.58Z"/><path class="cls-4" d="M77.81,32.51a.27.27,0,0,0-.08-.2C77.84,32.38,77.84,32.45,77.81,32.51Z"/><path class="cls-4" d="M78.21,32.78c-.1.24-.58.31-.94.4-.34-.29.42-.46.54-.67C77.82,32.68,77.76,32.84,78.21,32.78Z"/><path class="cls-4" d="M79.79,40.58c.06,0,.07-.19.33-.15l0,.42C79.9,41,79.83,40.67,79.79,40.58Z"/><path class="cls-4" d="M78.26,41.88c-.1.32.61.27.42.41l-.88-.18Z"/><polygon class="cls-4" points="73.81 40.92 73.92 40.84 73.87 40.94 73.81 40.92"/><path class="cls-4" d="M78.85,43.62l1,0A1.31,1.31,0,0,1,78.85,43.62Z"/><polygon class="cls-4" points="79.25 45.01 79.6 44.88 79.17 45.42 79.25 45.01"/><polygon class="cls-4" points="78.42 46.4 78.61 46.5 78.27 46.85 78.42 46.4"/><path class="cls-4" d="M71.84,61.67c-.77-.34-.17-.76-.27-1C72.45,61.24,71,60.94,71.84,61.67Z"/><path class="cls-4" d="M65.07,71.75l.56-.37C65.56,72,65.54,71.49,65.07,71.75Z"/></symbol></defs><title>Palme</title><use id="Tropisch-3" data-name="Tropisch" width="106.72" height="79.31" transform="translate(0 0) scale(3.98 3.98)" xlink:href="#Tropisch"/></svg>